G04 #@! TF.GenerationSoftware,KiCad,Pcbnew,5.1.9-73d0e3b20d~88~ubuntu20.04.1*
G04 #@! TF.CreationDate,2021-01-20T21:34:12+07:00*
G04 #@! TF.ProjectId,ch340G_uploader,63683334-3047-45f7-9570-6c6f61646572,rev?*
G04 #@! TF.SameCoordinates,Original*
G04 #@! TF.FileFunction,Legend,Top*
G04 #@! TF.FilePolarity,Positive*
%FSLAX46Y46*%
G04 Gerber Fmt 4.6, Leading zero omitted, Abs format (unit mm)*
G04 Created by KiCad (PCBNEW 5.1.9-73d0e3b20d~88~ubuntu20.04.1) date 2021-01-20 21:34:12*
%MOMM*%
%LPD*%
G01*
G04 APERTURE LIST*
%ADD10C,0.150000*%
%ADD11C,0.120000*%
%ADD12C,0.158750*%
%ADD13C,0.152400*%
G04 APERTURE END LIST*
D10*
X153949180Y-69199642D02*
X153996800Y-69247261D01*
X154044419Y-69342500D01*
X154044419Y-69580595D01*
X153996800Y-69675833D01*
X153949180Y-69723452D01*
X153853942Y-69771071D01*
X153758704Y-69771071D01*
X153615847Y-69723452D01*
X153044419Y-69152023D01*
X153044419Y-69771071D01*
X153711085Y-70628214D02*
X153044419Y-70628214D01*
X154092038Y-70390119D02*
X153377752Y-70152023D01*
X153377752Y-70771071D01*
X153139657Y-71152023D02*
X153092038Y-71199642D01*
X153044419Y-71152023D01*
X153092038Y-71104404D01*
X153139657Y-71152023D01*
X153044419Y-71152023D01*
X154044419Y-71532976D02*
X154044419Y-72199642D01*
X153044419Y-71771071D01*
X154044419Y-73009166D02*
X154044419Y-72818690D01*
X153996800Y-72723452D01*
X153949180Y-72675833D01*
X153806323Y-72580595D01*
X153615847Y-72532976D01*
X153234895Y-72532976D01*
X153139657Y-72580595D01*
X153092038Y-72628214D01*
X153044419Y-72723452D01*
X153044419Y-72913928D01*
X153092038Y-73009166D01*
X153139657Y-73056785D01*
X153234895Y-73104404D01*
X153472990Y-73104404D01*
X153568228Y-73056785D01*
X153615847Y-73009166D01*
X153663466Y-72913928D01*
X153663466Y-72723452D01*
X153615847Y-72628214D01*
X153568228Y-72580595D01*
X153472990Y-72532976D01*
X154044419Y-74009166D02*
X154044419Y-73532976D01*
X153568228Y-73485357D01*
X153615847Y-73532976D01*
X153663466Y-73628214D01*
X153663466Y-73866309D01*
X153615847Y-73961547D01*
X153568228Y-74009166D01*
X153472990Y-74056785D01*
X153234895Y-74056785D01*
X153139657Y-74009166D01*
X153092038Y-73961547D01*
X153044419Y-73866309D01*
X153044419Y-73628214D01*
X153092038Y-73532976D01*
X153139657Y-73485357D01*
X153044419Y-75247261D02*
X153711085Y-75247261D01*
X153615847Y-75247261D02*
X153663466Y-75294880D01*
X153711085Y-75390119D01*
X153711085Y-75532976D01*
X153663466Y-75628214D01*
X153568228Y-75675833D01*
X153044419Y-75675833D01*
X153568228Y-75675833D02*
X153663466Y-75723452D01*
X153711085Y-75818690D01*
X153711085Y-75961547D01*
X153663466Y-76056785D01*
X153568228Y-76104404D01*
X153044419Y-76104404D01*
X153044419Y-76580595D02*
X153711085Y-76580595D01*
X153615847Y-76580595D02*
X153663466Y-76628214D01*
X153711085Y-76723452D01*
X153711085Y-76866309D01*
X153663466Y-76961547D01*
X153568228Y-77009166D01*
X153044419Y-77009166D01*
X153568228Y-77009166D02*
X153663466Y-77056785D01*
X153711085Y-77152023D01*
X153711085Y-77294880D01*
X153663466Y-77390119D01*
X153568228Y-77437738D01*
X153044419Y-77437738D01*
X152196800Y-60960000D02*
X152196800Y-85725000D01*
X149225000Y-60960000D02*
X152783221Y-60960000D01*
X149225000Y-85725000D02*
X152783221Y-85725000D01*
X152196800Y-85725000D02*
X151610379Y-84598496D01*
X152196800Y-85725000D02*
X152783221Y-84598496D01*
X152196800Y-60960000D02*
X151610379Y-62086504D01*
X152196800Y-60960000D02*
X152783221Y-62086504D01*
X129477023Y-57491380D02*
X130096071Y-57491380D01*
X129762738Y-57872333D01*
X129905595Y-57872333D01*
X130000833Y-57919952D01*
X130048452Y-57967571D01*
X130096071Y-58062809D01*
X130096071Y-58300904D01*
X130048452Y-58396142D01*
X130000833Y-58443761D01*
X129905595Y-58491380D01*
X129619880Y-58491380D01*
X129524642Y-58443761D01*
X129477023Y-58396142D01*
X130477023Y-57586619D02*
X130524642Y-57539000D01*
X130619880Y-57491380D01*
X130857976Y-57491380D01*
X130953214Y-57539000D01*
X131000833Y-57586619D01*
X131048452Y-57681857D01*
X131048452Y-57777095D01*
X131000833Y-57919952D01*
X130429404Y-58491380D01*
X131048452Y-58491380D01*
X131477023Y-58396142D02*
X131524642Y-58443761D01*
X131477023Y-58491380D01*
X131429404Y-58443761D01*
X131477023Y-58396142D01*
X131477023Y-58491380D01*
X131857976Y-57491380D02*
X132477023Y-57491380D01*
X132143690Y-57872333D01*
X132286547Y-57872333D01*
X132381785Y-57919952D01*
X132429404Y-57967571D01*
X132477023Y-58062809D01*
X132477023Y-58300904D01*
X132429404Y-58396142D01*
X132381785Y-58443761D01*
X132286547Y-58491380D01*
X132000833Y-58491380D01*
X131905595Y-58443761D01*
X131857976Y-58396142D01*
X133048452Y-57919952D02*
X132953214Y-57872333D01*
X132905595Y-57824714D01*
X132857976Y-57729476D01*
X132857976Y-57681857D01*
X132905595Y-57586619D01*
X132953214Y-57539000D01*
X133048452Y-57491380D01*
X133238928Y-57491380D01*
X133334166Y-57539000D01*
X133381785Y-57586619D01*
X133429404Y-57681857D01*
X133429404Y-57729476D01*
X133381785Y-57824714D01*
X133334166Y-57872333D01*
X133238928Y-57919952D01*
X133048452Y-57919952D01*
X132953214Y-57967571D01*
X132905595Y-58015190D01*
X132857976Y-58110428D01*
X132857976Y-58300904D01*
X132905595Y-58396142D01*
X132953214Y-58443761D01*
X133048452Y-58491380D01*
X133238928Y-58491380D01*
X133334166Y-58443761D01*
X133381785Y-58396142D01*
X133429404Y-58300904D01*
X133429404Y-58110428D01*
X133381785Y-58015190D01*
X133334166Y-57967571D01*
X133238928Y-57919952D01*
X134334166Y-57491380D02*
X133857976Y-57491380D01*
X133810357Y-57967571D01*
X133857976Y-57919952D01*
X133953214Y-57872333D01*
X134191309Y-57872333D01*
X134286547Y-57919952D01*
X134334166Y-57967571D01*
X134381785Y-58062809D01*
X134381785Y-58300904D01*
X134334166Y-58396142D01*
X134286547Y-58443761D01*
X134191309Y-58491380D01*
X133953214Y-58491380D01*
X133857976Y-58443761D01*
X133810357Y-58396142D01*
X135572261Y-58491380D02*
X135572261Y-57824714D01*
X135572261Y-57919952D02*
X135619880Y-57872333D01*
X135715119Y-57824714D01*
X135857976Y-57824714D01*
X135953214Y-57872333D01*
X136000833Y-57967571D01*
X136000833Y-58491380D01*
X136000833Y-57967571D02*
X136048452Y-57872333D01*
X136143690Y-57824714D01*
X136286547Y-57824714D01*
X136381785Y-57872333D01*
X136429404Y-57967571D01*
X136429404Y-58491380D01*
X136905595Y-58491380D02*
X136905595Y-57824714D01*
X136905595Y-57919952D02*
X136953214Y-57872333D01*
X137048452Y-57824714D01*
X137191309Y-57824714D01*
X137286547Y-57872333D01*
X137334166Y-57967571D01*
X137334166Y-58491380D01*
X137334166Y-57967571D02*
X137381785Y-57872333D01*
X137477023Y-57824714D01*
X137619880Y-57824714D01*
X137715119Y-57872333D01*
X137762738Y-57967571D01*
X137762738Y-58491380D01*
D11*
X117475000Y-59309000D02*
X149860000Y-59309000D01*
X117475000Y-61595000D02*
X117475000Y-58722579D01*
X149860000Y-61595000D02*
X149860000Y-58722579D01*
X149860000Y-59309000D02*
X148733496Y-59895421D01*
X149860000Y-59309000D02*
X148733496Y-58722579D01*
X117475000Y-59309000D02*
X118601504Y-59895421D01*
X117475000Y-59309000D02*
X118601504Y-58722579D01*
D12*
X140827880Y-85029523D02*
X140918595Y-85059761D01*
X141069785Y-85059761D01*
X141130261Y-85029523D01*
X141160500Y-84999285D01*
X141190738Y-84938809D01*
X141190738Y-84878333D01*
X141160500Y-84817857D01*
X141130261Y-84787619D01*
X141069785Y-84757380D01*
X140948833Y-84727142D01*
X140888357Y-84696904D01*
X140858119Y-84666666D01*
X140827880Y-84606190D01*
X140827880Y-84545714D01*
X140858119Y-84485238D01*
X140888357Y-84455000D01*
X140948833Y-84424761D01*
X141100023Y-84424761D01*
X141190738Y-84455000D01*
X141462880Y-84727142D02*
X141674547Y-84727142D01*
X141765261Y-85059761D02*
X141462880Y-85059761D01*
X141462880Y-84424761D01*
X141765261Y-84424761D01*
X142400261Y-85059761D02*
X142188595Y-84757380D01*
X142037404Y-85059761D02*
X142037404Y-84424761D01*
X142279309Y-84424761D01*
X142339785Y-84455000D01*
X142370023Y-84485238D01*
X142400261Y-84545714D01*
X142400261Y-84636428D01*
X142370023Y-84696904D01*
X142339785Y-84727142D01*
X142279309Y-84757380D01*
X142037404Y-84757380D01*
X142672404Y-85059761D02*
X142672404Y-84424761D01*
X142944547Y-84878333D02*
X143246928Y-84878333D01*
X142884071Y-85059761D02*
X143095738Y-84424761D01*
X143307404Y-85059761D01*
X143821452Y-85059761D02*
X143519071Y-85059761D01*
X143519071Y-84424761D01*
X144516928Y-84424761D02*
X144516928Y-84938809D01*
X144547166Y-84999285D01*
X144577404Y-85029523D01*
X144637880Y-85059761D01*
X144758833Y-85059761D01*
X144819309Y-85029523D01*
X144849547Y-84999285D01*
X144879785Y-84938809D01*
X144879785Y-84424761D01*
X145182166Y-85059761D02*
X145182166Y-84424761D01*
X145424071Y-84424761D01*
X145484547Y-84455000D01*
X145514785Y-84485238D01*
X145545023Y-84545714D01*
X145545023Y-84636428D01*
X145514785Y-84696904D01*
X145484547Y-84727142D01*
X145424071Y-84757380D01*
X145182166Y-84757380D01*
X146119547Y-85059761D02*
X145817166Y-85059761D01*
X145817166Y-84424761D01*
X146452166Y-84424761D02*
X146573119Y-84424761D01*
X146633595Y-84455000D01*
X146694071Y-84515476D01*
X146724309Y-84636428D01*
X146724309Y-84848095D01*
X146694071Y-84969047D01*
X146633595Y-85029523D01*
X146573119Y-85059761D01*
X146452166Y-85059761D01*
X146391690Y-85029523D01*
X146331214Y-84969047D01*
X146300976Y-84848095D01*
X146300976Y-84636428D01*
X146331214Y-84515476D01*
X146391690Y-84455000D01*
X146452166Y-84424761D01*
X146966214Y-84878333D02*
X147268595Y-84878333D01*
X146905738Y-85059761D02*
X147117404Y-84424761D01*
X147329071Y-85059761D01*
X147540738Y-85059761D02*
X147540738Y-84424761D01*
X147691928Y-84424761D01*
X147782642Y-84455000D01*
X147843119Y-84515476D01*
X147873357Y-84575952D01*
X147903595Y-84696904D01*
X147903595Y-84787619D01*
X147873357Y-84908571D01*
X147843119Y-84969047D01*
X147782642Y-85029523D01*
X147691928Y-85059761D01*
X147540738Y-85059761D01*
X148175738Y-84727142D02*
X148387404Y-84727142D01*
X148478119Y-85059761D02*
X148175738Y-85059761D01*
X148175738Y-84424761D01*
X148478119Y-84424761D01*
X149113119Y-85059761D02*
X148901452Y-84757380D01*
X148750261Y-85059761D02*
X148750261Y-84424761D01*
X148992166Y-84424761D01*
X149052642Y-84455000D01*
X149082880Y-84485238D01*
X149113119Y-84545714D01*
X149113119Y-84636428D01*
X149082880Y-84696904D01*
X149052642Y-84727142D01*
X148992166Y-84757380D01*
X148750261Y-84757380D01*
X142503071Y-83853261D02*
X142503071Y-83218261D01*
X142714738Y-83671833D01*
X142926404Y-83218261D01*
X142926404Y-83853261D01*
X143228785Y-83853261D02*
X143228785Y-83218261D01*
X143531166Y-83853261D02*
X143531166Y-83218261D01*
X143894023Y-83853261D02*
X143621880Y-83490404D01*
X143894023Y-83218261D02*
X143531166Y-83581119D01*
X144529023Y-83853261D02*
X144317357Y-83550880D01*
X144166166Y-83853261D02*
X144166166Y-83218261D01*
X144408071Y-83218261D01*
X144468547Y-83248500D01*
X144498785Y-83278738D01*
X144529023Y-83339214D01*
X144529023Y-83429928D01*
X144498785Y-83490404D01*
X144468547Y-83520642D01*
X144408071Y-83550880D01*
X144166166Y-83550880D01*
X144922119Y-83218261D02*
X145043071Y-83218261D01*
X145103547Y-83248500D01*
X145164023Y-83308976D01*
X145194261Y-83429928D01*
X145194261Y-83641595D01*
X145164023Y-83762547D01*
X145103547Y-83823023D01*
X145043071Y-83853261D01*
X144922119Y-83853261D01*
X144861642Y-83823023D01*
X144801166Y-83762547D01*
X144770928Y-83641595D01*
X144770928Y-83429928D01*
X144801166Y-83308976D01*
X144861642Y-83248500D01*
X144922119Y-83218261D01*
X145436166Y-83671833D02*
X145738547Y-83671833D01*
X145375690Y-83853261D02*
X145587357Y-83218261D01*
X145799023Y-83853261D01*
X145919976Y-83218261D02*
X146131642Y-83853261D01*
X146343309Y-83218261D01*
X146917833Y-83853261D02*
X146706166Y-83550880D01*
X146554976Y-83853261D02*
X146554976Y-83218261D01*
X146796880Y-83218261D01*
X146857357Y-83248500D01*
X146887595Y-83278738D01*
X146917833Y-83339214D01*
X146917833Y-83429928D01*
X146887595Y-83490404D01*
X146857357Y-83520642D01*
X146796880Y-83550880D01*
X146554976Y-83550880D01*
X147189976Y-83792785D02*
X147220214Y-83823023D01*
X147189976Y-83853261D01*
X147159738Y-83823023D01*
X147189976Y-83792785D01*
X147189976Y-83853261D01*
X147855214Y-83792785D02*
X147824976Y-83823023D01*
X147734261Y-83853261D01*
X147673785Y-83853261D01*
X147583071Y-83823023D01*
X147522595Y-83762547D01*
X147492357Y-83702071D01*
X147462119Y-83581119D01*
X147462119Y-83490404D01*
X147492357Y-83369452D01*
X147522595Y-83308976D01*
X147583071Y-83248500D01*
X147673785Y-83218261D01*
X147734261Y-83218261D01*
X147824976Y-83248500D01*
X147855214Y-83278738D01*
X148248309Y-83218261D02*
X148369261Y-83218261D01*
X148429738Y-83248500D01*
X148490214Y-83308976D01*
X148520452Y-83429928D01*
X148520452Y-83641595D01*
X148490214Y-83762547D01*
X148429738Y-83823023D01*
X148369261Y-83853261D01*
X148248309Y-83853261D01*
X148187833Y-83823023D01*
X148127357Y-83762547D01*
X148097119Y-83641595D01*
X148097119Y-83429928D01*
X148127357Y-83308976D01*
X148187833Y-83248500D01*
X148248309Y-83218261D01*
X148792595Y-83853261D02*
X148792595Y-83218261D01*
X149004261Y-83671833D01*
X149215928Y-83218261D01*
X149215928Y-83853261D01*
D11*
X124388000Y-69408000D02*
X128088000Y-69408000D01*
X124388000Y-71308000D02*
X124388000Y-69408000D01*
X128088000Y-71308000D02*
X124388000Y-71308000D01*
X128088000Y-69408000D02*
X128088000Y-71308000D01*
X119679000Y-63507500D02*
X122539000Y-63507500D01*
X119679000Y-61587500D02*
X119679000Y-63507500D01*
X122539000Y-61587500D02*
X119679000Y-61587500D01*
X149032000Y-69215500D02*
X149032000Y-72915500D01*
X147132000Y-69215500D02*
X149032000Y-69215500D01*
X147132000Y-72915500D02*
X147132000Y-69215500D01*
X149032000Y-72915500D02*
X147132000Y-72915500D01*
X146873000Y-69215500D02*
X146873000Y-72915500D01*
X144973000Y-69215500D02*
X146873000Y-69215500D01*
X144973000Y-72915500D02*
X144973000Y-69215500D01*
X146873000Y-72915500D02*
X144973000Y-72915500D01*
X148905000Y-77984500D02*
X148905000Y-81684500D01*
X147005000Y-77984500D02*
X148905000Y-77984500D01*
X147005000Y-81684500D02*
X147005000Y-77984500D01*
X148905000Y-81684500D02*
X147005000Y-81684500D01*
X140591500Y-81684500D02*
X140591500Y-77984500D01*
X142491500Y-77984500D02*
X142491500Y-81684500D01*
X140591500Y-77984500D02*
X142491500Y-77984500D01*
X142491500Y-81684500D02*
X140591500Y-81684500D01*
X146809500Y-77984500D02*
X146809500Y-81684500D01*
X144909500Y-81684500D02*
X144909500Y-77984500D01*
X146809500Y-81684500D02*
X144909500Y-81684500D01*
X144909500Y-77984500D02*
X146809500Y-77984500D01*
X134690000Y-69281000D02*
X138390000Y-69281000D01*
X138390000Y-71181000D02*
X134690000Y-71181000D01*
X138390000Y-69281000D02*
X138390000Y-71181000D01*
X134690000Y-71181000D02*
X134690000Y-69281000D01*
X144422500Y-71181000D02*
X140722500Y-71181000D01*
X140722500Y-69281000D02*
X144422500Y-69281000D01*
X140722500Y-71181000D02*
X140722500Y-69281000D01*
X144422500Y-69281000D02*
X144422500Y-71181000D01*
X129468000Y-69281000D02*
X133168000Y-69281000D01*
X133168000Y-71181000D02*
X129468000Y-71181000D01*
X133168000Y-69281000D02*
X133168000Y-71181000D01*
X129468000Y-71181000D02*
X129468000Y-69281000D01*
X127643500Y-81023500D02*
X123943500Y-81023500D01*
X123943500Y-79123500D02*
X127643500Y-79123500D01*
X123943500Y-81023500D02*
X123943500Y-79123500D01*
X127643500Y-79123500D02*
X127643500Y-81023500D01*
X128798000Y-81091000D02*
X128798000Y-83041000D01*
X128798000Y-81091000D02*
X128798000Y-79141000D01*
X138918000Y-81091000D02*
X138918000Y-83041000D01*
X138918000Y-81091000D02*
X138918000Y-77641000D01*
X126449500Y-76548064D02*
X126449500Y-75343936D01*
X124629500Y-76548064D02*
X124629500Y-75343936D01*
X109006200Y-65668200D02*
X109006200Y-80168200D01*
X109006200Y-80168200D02*
X109506200Y-80168200D01*
X109506200Y-80168200D02*
X109506200Y-79168200D01*
X109506200Y-79168200D02*
X117506200Y-79168200D01*
X121006200Y-79168200D02*
X123006200Y-79168200D01*
X123006200Y-79168200D02*
X123006200Y-66668200D01*
X123006200Y-66668200D02*
X121006200Y-66668200D01*
X117506200Y-66668200D02*
X109506200Y-66668200D01*
X109506200Y-66668200D02*
X109506200Y-65668200D01*
X109506200Y-65668200D02*
X109006200Y-65668200D01*
X123256200Y-68918200D02*
X123256200Y-69918200D01*
X135830000Y-67179500D02*
X135830000Y-65849500D01*
X137160000Y-67179500D02*
X135830000Y-67179500D01*
X135830000Y-64579500D02*
X135830000Y-61979500D01*
X138430000Y-64579500D02*
X135830000Y-64579500D01*
X138430000Y-67179500D02*
X138430000Y-64579500D01*
X135830000Y-61979500D02*
X148650000Y-61979500D01*
X138430000Y-67179500D02*
X148650000Y-67179500D01*
X148650000Y-67179500D02*
X148650000Y-61979500D01*
X130714000Y-76845000D02*
X143314000Y-76845000D01*
X130714000Y-71745000D02*
X130714000Y-76845000D01*
X143314000Y-71745000D02*
X130714000Y-71745000D01*
X124551000Y-61868000D02*
X130561000Y-61868000D01*
X126801000Y-68688000D02*
X130561000Y-68688000D01*
X130561000Y-61868000D02*
X130561000Y-63128000D01*
X130561000Y-68688000D02*
X130561000Y-67428000D01*
X127095500Y-84608500D02*
X122115500Y-84608500D01*
X127095500Y-81888500D02*
X122115500Y-81888500D01*
X127095500Y-84608500D02*
X127095500Y-81888500D01*
D10*
X127148166Y-72359761D02*
X126936500Y-72057380D01*
X126785309Y-72359761D02*
X126785309Y-71724761D01*
X127027214Y-71724761D01*
X127087690Y-71755000D01*
X127117928Y-71785238D01*
X127148166Y-71845714D01*
X127148166Y-71936428D01*
X127117928Y-71996904D01*
X127087690Y-72027142D01*
X127027214Y-72057380D01*
X126785309Y-72057380D01*
X127692452Y-71936428D02*
X127692452Y-72359761D01*
X127541261Y-71694523D02*
X127390071Y-72148095D01*
X127783166Y-72148095D01*
X119104761Y-63206690D02*
X118469761Y-63206690D01*
X118469761Y-63055500D01*
X118500000Y-62964785D01*
X118560476Y-62904309D01*
X118620952Y-62874071D01*
X118741904Y-62843833D01*
X118832619Y-62843833D01*
X118953571Y-62874071D01*
X119014047Y-62904309D01*
X119074523Y-62964785D01*
X119104761Y-63055500D01*
X119104761Y-63206690D01*
X118530238Y-62601928D02*
X118500000Y-62571690D01*
X118469761Y-62511214D01*
X118469761Y-62360023D01*
X118500000Y-62299547D01*
X118530238Y-62269309D01*
X118590714Y-62239071D01*
X118651190Y-62239071D01*
X118741904Y-62269309D01*
X119104761Y-62632166D01*
X119104761Y-62239071D01*
D13*
X147874566Y-73958561D02*
X147662900Y-73656180D01*
X147511709Y-73958561D02*
X147511709Y-73323561D01*
X147753614Y-73323561D01*
X147814090Y-73353800D01*
X147844328Y-73384038D01*
X147874566Y-73444514D01*
X147874566Y-73535228D01*
X147844328Y-73595704D01*
X147814090Y-73625942D01*
X147753614Y-73656180D01*
X147511709Y-73656180D01*
X148086233Y-73323561D02*
X148479328Y-73323561D01*
X148267661Y-73565466D01*
X148358376Y-73565466D01*
X148418852Y-73595704D01*
X148449090Y-73625942D01*
X148479328Y-73686419D01*
X148479328Y-73837609D01*
X148449090Y-73898085D01*
X148418852Y-73928323D01*
X148358376Y-73958561D01*
X148176947Y-73958561D01*
X148116471Y-73928323D01*
X148086233Y-73898085D01*
X145867966Y-73890461D02*
X145656300Y-73588080D01*
X145505109Y-73890461D02*
X145505109Y-73255461D01*
X145747014Y-73255461D01*
X145807490Y-73285700D01*
X145837728Y-73315938D01*
X145867966Y-73376414D01*
X145867966Y-73467128D01*
X145837728Y-73527604D01*
X145807490Y-73557842D01*
X145747014Y-73588080D01*
X145505109Y-73588080D01*
X146109871Y-73315938D02*
X146140109Y-73285700D01*
X146200585Y-73255461D01*
X146351776Y-73255461D01*
X146412252Y-73285700D01*
X146442490Y-73315938D01*
X146472728Y-73376414D01*
X146472728Y-73436890D01*
X146442490Y-73527604D01*
X146079633Y-73890461D01*
X146472728Y-73890461D01*
X147701566Y-77551961D02*
X147489900Y-77249580D01*
X147338709Y-77551961D02*
X147338709Y-76916961D01*
X147580614Y-76916961D01*
X147641090Y-76947200D01*
X147671328Y-76977438D01*
X147701566Y-77037914D01*
X147701566Y-77128628D01*
X147671328Y-77189104D01*
X147641090Y-77219342D01*
X147580614Y-77249580D01*
X147338709Y-77249580D01*
X148306328Y-77551961D02*
X147943471Y-77551961D01*
X148124900Y-77551961D02*
X148124900Y-76916961D01*
X148064423Y-77007676D01*
X148003947Y-77068152D01*
X147943471Y-77098390D01*
X141600766Y-82624385D02*
X141570528Y-82654623D01*
X141479814Y-82684861D01*
X141419338Y-82684861D01*
X141328623Y-82654623D01*
X141268147Y-82594147D01*
X141237909Y-82533671D01*
X141207671Y-82412719D01*
X141207671Y-82322004D01*
X141237909Y-82201052D01*
X141268147Y-82140576D01*
X141328623Y-82080100D01*
X141419338Y-82049861D01*
X141479814Y-82049861D01*
X141570528Y-82080100D01*
X141600766Y-82110338D01*
X142145052Y-82049861D02*
X142024100Y-82049861D01*
X141963623Y-82080100D01*
X141933385Y-82110338D01*
X141872909Y-82201052D01*
X141842671Y-82322004D01*
X141842671Y-82563909D01*
X141872909Y-82624385D01*
X141903147Y-82654623D01*
X141963623Y-82684861D01*
X142084576Y-82684861D01*
X142145052Y-82654623D01*
X142175290Y-82624385D01*
X142205528Y-82563909D01*
X142205528Y-82412719D01*
X142175290Y-82352242D01*
X142145052Y-82322004D01*
X142084576Y-82291766D01*
X141963623Y-82291766D01*
X141903147Y-82322004D01*
X141872909Y-82352242D01*
X141842671Y-82412719D01*
X145606066Y-77591485D02*
X145575828Y-77621723D01*
X145485114Y-77651961D01*
X145424638Y-77651961D01*
X145333923Y-77621723D01*
X145273447Y-77561247D01*
X145243209Y-77500771D01*
X145212971Y-77379819D01*
X145212971Y-77289104D01*
X145243209Y-77168152D01*
X145273447Y-77107676D01*
X145333923Y-77047200D01*
X145424638Y-77016961D01*
X145485114Y-77016961D01*
X145575828Y-77047200D01*
X145606066Y-77077438D01*
X146180590Y-77016961D02*
X145878209Y-77016961D01*
X145847971Y-77319342D01*
X145878209Y-77289104D01*
X145938685Y-77258866D01*
X146089876Y-77258866D01*
X146150352Y-77289104D01*
X146180590Y-77319342D01*
X146210828Y-77379819D01*
X146210828Y-77531009D01*
X146180590Y-77591485D01*
X146150352Y-77621723D01*
X146089876Y-77651961D01*
X145938685Y-77651961D01*
X145878209Y-77621723D01*
X145847971Y-77591485D01*
X134262585Y-70413033D02*
X134292823Y-70443271D01*
X134323061Y-70533985D01*
X134323061Y-70594461D01*
X134292823Y-70685176D01*
X134232347Y-70745652D01*
X134171871Y-70775890D01*
X134050919Y-70806128D01*
X133960204Y-70806128D01*
X133839252Y-70775890D01*
X133778776Y-70745652D01*
X133718300Y-70685176D01*
X133688061Y-70594461D01*
X133688061Y-70533985D01*
X133718300Y-70443271D01*
X133748538Y-70413033D01*
X133899728Y-69868747D02*
X134323061Y-69868747D01*
X133657823Y-70019938D02*
X134111395Y-70171128D01*
X134111395Y-69778033D01*
X140307785Y-70311433D02*
X140338023Y-70341671D01*
X140368261Y-70432385D01*
X140368261Y-70492861D01*
X140338023Y-70583576D01*
X140277547Y-70644052D01*
X140217071Y-70674290D01*
X140096119Y-70704528D01*
X140005404Y-70704528D01*
X139884452Y-70674290D01*
X139823976Y-70644052D01*
X139763500Y-70583576D01*
X139733261Y-70492861D01*
X139733261Y-70432385D01*
X139763500Y-70341671D01*
X139793738Y-70311433D01*
X139733261Y-70099766D02*
X139733261Y-69706671D01*
X139975166Y-69918338D01*
X139975166Y-69827623D01*
X140005404Y-69767147D01*
X140035642Y-69736909D01*
X140096119Y-69706671D01*
X140247309Y-69706671D01*
X140307785Y-69736909D01*
X140338023Y-69767147D01*
X140368261Y-69827623D01*
X140368261Y-70009052D01*
X140338023Y-70069528D01*
X140307785Y-70099766D01*
X129055585Y-70438433D02*
X129085823Y-70468671D01*
X129116061Y-70559385D01*
X129116061Y-70619861D01*
X129085823Y-70710576D01*
X129025347Y-70771052D01*
X128964871Y-70801290D01*
X128843919Y-70831528D01*
X128753204Y-70831528D01*
X128632252Y-70801290D01*
X128571776Y-70771052D01*
X128511300Y-70710576D01*
X128481061Y-70619861D01*
X128481061Y-70559385D01*
X128511300Y-70468671D01*
X128541538Y-70438433D01*
X128541538Y-70196528D02*
X128511300Y-70166290D01*
X128481061Y-70105814D01*
X128481061Y-69954623D01*
X128511300Y-69894147D01*
X128541538Y-69863909D01*
X128602014Y-69833671D01*
X128662490Y-69833671D01*
X128753204Y-69863909D01*
X129116061Y-70226766D01*
X129116061Y-69833671D01*
X128820285Y-79879333D02*
X128850523Y-79909571D01*
X128880761Y-80000285D01*
X128880761Y-80060761D01*
X128850523Y-80151476D01*
X128790047Y-80211952D01*
X128729571Y-80242190D01*
X128608619Y-80272428D01*
X128517904Y-80272428D01*
X128396952Y-80242190D01*
X128336476Y-80211952D01*
X128276000Y-80151476D01*
X128245761Y-80060761D01*
X128245761Y-80000285D01*
X128276000Y-79909571D01*
X128306238Y-79879333D01*
X128880761Y-79274571D02*
X128880761Y-79637428D01*
X128880761Y-79456000D02*
X128245761Y-79456000D01*
X128336476Y-79516476D01*
X128396952Y-79576952D01*
X128427190Y-79637428D01*
X135914190Y-80932261D02*
X135914190Y-81446309D01*
X135944428Y-81506785D01*
X135974666Y-81537023D01*
X136035142Y-81567261D01*
X136156095Y-81567261D01*
X136216571Y-81537023D01*
X136246809Y-81506785D01*
X136277047Y-81446309D01*
X136277047Y-80932261D01*
X136549190Y-80992738D02*
X136579428Y-80962500D01*
X136639904Y-80932261D01*
X136791095Y-80932261D01*
X136851571Y-80962500D01*
X136881809Y-80992738D01*
X136912047Y-81053214D01*
X136912047Y-81113690D01*
X136881809Y-81204404D01*
X136518952Y-81567261D01*
X136912047Y-81567261D01*
X127462642Y-77491166D02*
X127462642Y-77702833D01*
X127795261Y-77702833D02*
X127160261Y-77702833D01*
X127160261Y-77400452D01*
X127795261Y-76825928D02*
X127795261Y-77188785D01*
X127795261Y-77007357D02*
X127160261Y-77007357D01*
X127250976Y-77067833D01*
X127311452Y-77128309D01*
X127341690Y-77188785D01*
X123908461Y-73129866D02*
X124362033Y-73129866D01*
X124452747Y-73160104D01*
X124513223Y-73220580D01*
X124543461Y-73311295D01*
X124543461Y-73371771D01*
X124543461Y-72494866D02*
X124543461Y-72857723D01*
X124543461Y-72676295D02*
X123908461Y-72676295D01*
X123999176Y-72736771D01*
X124059652Y-72797247D01*
X124089890Y-72857723D01*
X134482261Y-64791166D02*
X134935833Y-64791166D01*
X135026547Y-64821404D01*
X135087023Y-64881880D01*
X135117261Y-64972595D01*
X135117261Y-65033071D01*
X134542738Y-64519023D02*
X134512500Y-64488785D01*
X134482261Y-64428309D01*
X134482261Y-64277119D01*
X134512500Y-64216642D01*
X134542738Y-64186404D01*
X134603214Y-64156166D01*
X134663690Y-64156166D01*
X134754404Y-64186404D01*
X135117261Y-64549261D01*
X135117261Y-64156166D01*
X137683119Y-74089380D02*
X137683119Y-74391761D01*
X137471452Y-73756761D02*
X137683119Y-74089380D01*
X137894785Y-73756761D01*
X138439071Y-74391761D02*
X138076214Y-74391761D01*
X138257642Y-74391761D02*
X138257642Y-73756761D01*
X138197166Y-73847476D01*
X138136690Y-73907952D01*
X138076214Y-73938190D01*
X129031190Y-62390261D02*
X129031190Y-62904309D01*
X129061428Y-62964785D01*
X129091666Y-62995023D01*
X129152142Y-63025261D01*
X129273095Y-63025261D01*
X129333571Y-62995023D01*
X129363809Y-62964785D01*
X129394047Y-62904309D01*
X129394047Y-62390261D01*
X130029047Y-63025261D02*
X129666190Y-63025261D01*
X129847619Y-63025261D02*
X129847619Y-62390261D01*
X129787142Y-62480976D01*
X129726666Y-62541452D01*
X129666190Y-62571690D01*
X119921261Y-83602890D02*
X119286261Y-83602890D01*
X119286261Y-83451700D01*
X119316500Y-83360985D01*
X119376976Y-83300509D01*
X119437452Y-83270271D01*
X119558404Y-83240033D01*
X119649119Y-83240033D01*
X119770071Y-83270271D01*
X119830547Y-83300509D01*
X119891023Y-83360985D01*
X119921261Y-83451700D01*
X119921261Y-83602890D01*
X119921261Y-82635271D02*
X119921261Y-82998128D01*
X119921261Y-82816700D02*
X119286261Y-82816700D01*
X119376976Y-82877176D01*
X119437452Y-82937652D01*
X119467690Y-82998128D01*
M02*
