G04 #@! TF.GenerationSoftware,KiCad,Pcbnew,5.1.9-73d0e3b20d~88~ubuntu20.04.1*
G04 #@! TF.CreationDate,2021-01-20T21:34:12+07:00*
G04 #@! TF.ProjectId,ch340G_uploader,63683334-3047-45f7-9570-6c6f61646572,rev?*
G04 #@! TF.SameCoordinates,Original*
G04 #@! TF.FileFunction,Copper,L1,Top*
G04 #@! TF.FilePolarity,Positive*
%FSLAX46Y46*%
G04 Gerber Fmt 4.6, Leading zero omitted, Abs format (unit mm)*
G04 Created by KiCad (PCBNEW 5.1.9-73d0e3b20d~88~ubuntu20.04.1) date 2021-01-20 21:34:12*
%MOMM*%
%LPD*%
G01*
G04 APERTURE LIST*
G04 #@! TA.AperFunction,ComponentPad*
%ADD10C,1.600000*%
G04 #@! TD*
G04 #@! TA.AperFunction,ComponentPad*
%ADD11R,1.600000X1.600000*%
G04 #@! TD*
G04 #@! TA.AperFunction,ComponentPad*
%ADD12C,3.000000*%
G04 #@! TD*
G04 #@! TA.AperFunction,ComponentPad*
%ADD13O,1.700000X1.700000*%
G04 #@! TD*
G04 #@! TA.AperFunction,ComponentPad*
%ADD14R,1.700000X1.700000*%
G04 #@! TD*
G04 #@! TA.AperFunction,SMDPad,CuDef*
%ADD15R,5.080000X2.000000*%
G04 #@! TD*
G04 #@! TA.AperFunction,SMDPad,CuDef*
%ADD16R,2.000000X1.500000*%
G04 #@! TD*
G04 #@! TA.AperFunction,SMDPad,CuDef*
%ADD17R,2.000000X3.800000*%
G04 #@! TD*
G04 #@! TA.AperFunction,SMDPad,CuDef*
%ADD18R,2.400000X2.100000*%
G04 #@! TD*
G04 #@! TA.AperFunction,ViaPad*
%ADD19C,0.800000*%
G04 #@! TD*
G04 #@! TA.AperFunction,Conductor*
%ADD20C,0.508000*%
G04 #@! TD*
G04 #@! TA.AperFunction,Conductor*
%ADD21C,0.304800*%
G04 #@! TD*
G04 #@! TA.AperFunction,Conductor*
%ADD22C,0.812800*%
G04 #@! TD*
G04 #@! TA.AperFunction,Conductor*
%ADD23C,1.016000*%
G04 #@! TD*
G04 #@! TA.AperFunction,Conductor*
%ADD24C,0.250000*%
G04 #@! TD*
G04 #@! TA.AperFunction,Conductor*
%ADD25C,0.254000*%
G04 #@! TD*
G04 #@! TA.AperFunction,Conductor*
%ADD26C,0.100000*%
G04 #@! TD*
G04 APERTURE END LIST*
G04 #@! TA.AperFunction,SMDPad,CuDef*
G36*
G01*
X127838000Y-69907999D02*
X127838000Y-70808001D01*
G75*
G02*
X127588001Y-71058000I-249999J0D01*
G01*
X126937999Y-71058000D01*
G75*
G02*
X126688000Y-70808001I0J249999D01*
G01*
X126688000Y-69907999D01*
G75*
G02*
X126937999Y-69658000I249999J0D01*
G01*
X127588001Y-69658000D01*
G75*
G02*
X127838000Y-69907999I0J-249999D01*
G01*
G37*
G04 #@! TD.AperFunction*
G04 #@! TA.AperFunction,SMDPad,CuDef*
G36*
G01*
X125788000Y-69907999D02*
X125788000Y-70808001D01*
G75*
G02*
X125538001Y-71058000I-249999J0D01*
G01*
X124887999Y-71058000D01*
G75*
G02*
X124638000Y-70808001I0J249999D01*
G01*
X124638000Y-69907999D01*
G75*
G02*
X124887999Y-69658000I249999J0D01*
G01*
X125538001Y-69658000D01*
G75*
G02*
X125788000Y-69907999I0J-249999D01*
G01*
G37*
G04 #@! TD.AperFunction*
G04 #@! TA.AperFunction,SMDPad,CuDef*
G36*
G01*
X121989000Y-62997501D02*
X121989000Y-62097499D01*
G75*
G02*
X122238999Y-61847500I249999J0D01*
G01*
X122889001Y-61847500D01*
G75*
G02*
X123139000Y-62097499I0J-249999D01*
G01*
X123139000Y-62997501D01*
G75*
G02*
X122889001Y-63247500I-249999J0D01*
G01*
X122238999Y-63247500D01*
G75*
G02*
X121989000Y-62997501I0J249999D01*
G01*
G37*
G04 #@! TD.AperFunction*
G04 #@! TA.AperFunction,SMDPad,CuDef*
G36*
G01*
X119939000Y-62997501D02*
X119939000Y-62097499D01*
G75*
G02*
X120188999Y-61847500I249999J0D01*
G01*
X120839001Y-61847500D01*
G75*
G02*
X121089000Y-62097499I0J-249999D01*
G01*
X121089000Y-62997501D01*
G75*
G02*
X120839001Y-63247500I-249999J0D01*
G01*
X120188999Y-63247500D01*
G75*
G02*
X119939000Y-62997501I0J249999D01*
G01*
G37*
G04 #@! TD.AperFunction*
G04 #@! TA.AperFunction,SMDPad,CuDef*
G36*
G01*
X148532001Y-72665500D02*
X147631999Y-72665500D01*
G75*
G02*
X147382000Y-72415501I0J249999D01*
G01*
X147382000Y-71765499D01*
G75*
G02*
X147631999Y-71515500I249999J0D01*
G01*
X148532001Y-71515500D01*
G75*
G02*
X148782000Y-71765499I0J-249999D01*
G01*
X148782000Y-72415501D01*
G75*
G02*
X148532001Y-72665500I-249999J0D01*
G01*
G37*
G04 #@! TD.AperFunction*
G04 #@! TA.AperFunction,SMDPad,CuDef*
G36*
G01*
X148532001Y-70615500D02*
X147631999Y-70615500D01*
G75*
G02*
X147382000Y-70365501I0J249999D01*
G01*
X147382000Y-69715499D01*
G75*
G02*
X147631999Y-69465500I249999J0D01*
G01*
X148532001Y-69465500D01*
G75*
G02*
X148782000Y-69715499I0J-249999D01*
G01*
X148782000Y-70365501D01*
G75*
G02*
X148532001Y-70615500I-249999J0D01*
G01*
G37*
G04 #@! TD.AperFunction*
G04 #@! TA.AperFunction,SMDPad,CuDef*
G36*
G01*
X146373001Y-72665500D02*
X145472999Y-72665500D01*
G75*
G02*
X145223000Y-72415501I0J249999D01*
G01*
X145223000Y-71765499D01*
G75*
G02*
X145472999Y-71515500I249999J0D01*
G01*
X146373001Y-71515500D01*
G75*
G02*
X146623000Y-71765499I0J-249999D01*
G01*
X146623000Y-72415501D01*
G75*
G02*
X146373001Y-72665500I-249999J0D01*
G01*
G37*
G04 #@! TD.AperFunction*
G04 #@! TA.AperFunction,SMDPad,CuDef*
G36*
G01*
X146373001Y-70615500D02*
X145472999Y-70615500D01*
G75*
G02*
X145223000Y-70365501I0J249999D01*
G01*
X145223000Y-69715499D01*
G75*
G02*
X145472999Y-69465500I249999J0D01*
G01*
X146373001Y-69465500D01*
G75*
G02*
X146623000Y-69715499I0J-249999D01*
G01*
X146623000Y-70365501D01*
G75*
G02*
X146373001Y-70615500I-249999J0D01*
G01*
G37*
G04 #@! TD.AperFunction*
G04 #@! TA.AperFunction,SMDPad,CuDef*
G36*
G01*
X148405001Y-81434500D02*
X147504999Y-81434500D01*
G75*
G02*
X147255000Y-81184501I0J249999D01*
G01*
X147255000Y-80534499D01*
G75*
G02*
X147504999Y-80284500I249999J0D01*
G01*
X148405001Y-80284500D01*
G75*
G02*
X148655000Y-80534499I0J-249999D01*
G01*
X148655000Y-81184501D01*
G75*
G02*
X148405001Y-81434500I-249999J0D01*
G01*
G37*
G04 #@! TD.AperFunction*
G04 #@! TA.AperFunction,SMDPad,CuDef*
G36*
G01*
X148405001Y-79384500D02*
X147504999Y-79384500D01*
G75*
G02*
X147255000Y-79134501I0J249999D01*
G01*
X147255000Y-78484499D01*
G75*
G02*
X147504999Y-78234500I249999J0D01*
G01*
X148405001Y-78234500D01*
G75*
G02*
X148655000Y-78484499I0J-249999D01*
G01*
X148655000Y-79134501D01*
G75*
G02*
X148405001Y-79384500I-249999J0D01*
G01*
G37*
G04 #@! TD.AperFunction*
G04 #@! TA.AperFunction,SMDPad,CuDef*
G36*
G01*
X141091499Y-80284500D02*
X141991501Y-80284500D01*
G75*
G02*
X142241500Y-80534499I0J-249999D01*
G01*
X142241500Y-81184501D01*
G75*
G02*
X141991501Y-81434500I-249999J0D01*
G01*
X141091499Y-81434500D01*
G75*
G02*
X140841500Y-81184501I0J249999D01*
G01*
X140841500Y-80534499D01*
G75*
G02*
X141091499Y-80284500I249999J0D01*
G01*
G37*
G04 #@! TD.AperFunction*
G04 #@! TA.AperFunction,SMDPad,CuDef*
G36*
G01*
X141091499Y-78234500D02*
X141991501Y-78234500D01*
G75*
G02*
X142241500Y-78484499I0J-249999D01*
G01*
X142241500Y-79134501D01*
G75*
G02*
X141991501Y-79384500I-249999J0D01*
G01*
X141091499Y-79384500D01*
G75*
G02*
X140841500Y-79134501I0J249999D01*
G01*
X140841500Y-78484499D01*
G75*
G02*
X141091499Y-78234500I249999J0D01*
G01*
G37*
G04 #@! TD.AperFunction*
G04 #@! TA.AperFunction,SMDPad,CuDef*
G36*
G01*
X146309501Y-79384500D02*
X145409499Y-79384500D01*
G75*
G02*
X145159500Y-79134501I0J249999D01*
G01*
X145159500Y-78484499D01*
G75*
G02*
X145409499Y-78234500I249999J0D01*
G01*
X146309501Y-78234500D01*
G75*
G02*
X146559500Y-78484499I0J-249999D01*
G01*
X146559500Y-79134501D01*
G75*
G02*
X146309501Y-79384500I-249999J0D01*
G01*
G37*
G04 #@! TD.AperFunction*
G04 #@! TA.AperFunction,SMDPad,CuDef*
G36*
G01*
X146309501Y-81434500D02*
X145409499Y-81434500D01*
G75*
G02*
X145159500Y-81184501I0J249999D01*
G01*
X145159500Y-80534499D01*
G75*
G02*
X145409499Y-80284500I249999J0D01*
G01*
X146309501Y-80284500D01*
G75*
G02*
X146559500Y-80534499I0J-249999D01*
G01*
X146559500Y-81184501D01*
G75*
G02*
X146309501Y-81434500I-249999J0D01*
G01*
G37*
G04 #@! TD.AperFunction*
G04 #@! TA.AperFunction,SMDPad,CuDef*
G36*
G01*
X136090000Y-69780999D02*
X136090000Y-70681001D01*
G75*
G02*
X135840001Y-70931000I-249999J0D01*
G01*
X135189999Y-70931000D01*
G75*
G02*
X134940000Y-70681001I0J249999D01*
G01*
X134940000Y-69780999D01*
G75*
G02*
X135189999Y-69531000I249999J0D01*
G01*
X135840001Y-69531000D01*
G75*
G02*
X136090000Y-69780999I0J-249999D01*
G01*
G37*
G04 #@! TD.AperFunction*
G04 #@! TA.AperFunction,SMDPad,CuDef*
G36*
G01*
X138140000Y-69780999D02*
X138140000Y-70681001D01*
G75*
G02*
X137890001Y-70931000I-249999J0D01*
G01*
X137239999Y-70931000D01*
G75*
G02*
X136990000Y-70681001I0J249999D01*
G01*
X136990000Y-69780999D01*
G75*
G02*
X137239999Y-69531000I249999J0D01*
G01*
X137890001Y-69531000D01*
G75*
G02*
X138140000Y-69780999I0J-249999D01*
G01*
G37*
G04 #@! TD.AperFunction*
G04 #@! TA.AperFunction,SMDPad,CuDef*
G36*
G01*
X143022500Y-70681001D02*
X143022500Y-69780999D01*
G75*
G02*
X143272499Y-69531000I249999J0D01*
G01*
X143922501Y-69531000D01*
G75*
G02*
X144172500Y-69780999I0J-249999D01*
G01*
X144172500Y-70681001D01*
G75*
G02*
X143922501Y-70931000I-249999J0D01*
G01*
X143272499Y-70931000D01*
G75*
G02*
X143022500Y-70681001I0J249999D01*
G01*
G37*
G04 #@! TD.AperFunction*
G04 #@! TA.AperFunction,SMDPad,CuDef*
G36*
G01*
X140972500Y-70681001D02*
X140972500Y-69780999D01*
G75*
G02*
X141222499Y-69531000I249999J0D01*
G01*
X141872501Y-69531000D01*
G75*
G02*
X142122500Y-69780999I0J-249999D01*
G01*
X142122500Y-70681001D01*
G75*
G02*
X141872501Y-70931000I-249999J0D01*
G01*
X141222499Y-70931000D01*
G75*
G02*
X140972500Y-70681001I0J249999D01*
G01*
G37*
G04 #@! TD.AperFunction*
G04 #@! TA.AperFunction,SMDPad,CuDef*
G36*
G01*
X130868000Y-69780999D02*
X130868000Y-70681001D01*
G75*
G02*
X130618001Y-70931000I-249999J0D01*
G01*
X129967999Y-70931000D01*
G75*
G02*
X129718000Y-70681001I0J249999D01*
G01*
X129718000Y-69780999D01*
G75*
G02*
X129967999Y-69531000I249999J0D01*
G01*
X130618001Y-69531000D01*
G75*
G02*
X130868000Y-69780999I0J-249999D01*
G01*
G37*
G04 #@! TD.AperFunction*
G04 #@! TA.AperFunction,SMDPad,CuDef*
G36*
G01*
X132918000Y-69780999D02*
X132918000Y-70681001D01*
G75*
G02*
X132668001Y-70931000I-249999J0D01*
G01*
X132017999Y-70931000D01*
G75*
G02*
X131768000Y-70681001I0J249999D01*
G01*
X131768000Y-69780999D01*
G75*
G02*
X132017999Y-69531000I249999J0D01*
G01*
X132668001Y-69531000D01*
G75*
G02*
X132918000Y-69780999I0J-249999D01*
G01*
G37*
G04 #@! TD.AperFunction*
G04 #@! TA.AperFunction,SMDPad,CuDef*
G36*
G01*
X126243500Y-80523501D02*
X126243500Y-79623499D01*
G75*
G02*
X126493499Y-79373500I249999J0D01*
G01*
X127143501Y-79373500D01*
G75*
G02*
X127393500Y-79623499I0J-249999D01*
G01*
X127393500Y-80523501D01*
G75*
G02*
X127143501Y-80773500I-249999J0D01*
G01*
X126493499Y-80773500D01*
G75*
G02*
X126243500Y-80523501I0J249999D01*
G01*
G37*
G04 #@! TD.AperFunction*
G04 #@! TA.AperFunction,SMDPad,CuDef*
G36*
G01*
X124193500Y-80523501D02*
X124193500Y-79623499D01*
G75*
G02*
X124443499Y-79373500I249999J0D01*
G01*
X125093501Y-79373500D01*
G75*
G02*
X125343500Y-79623499I0J-249999D01*
G01*
X125343500Y-80523501D01*
G75*
G02*
X125093501Y-80773500I-249999J0D01*
G01*
X124443499Y-80773500D01*
G75*
G02*
X124193500Y-80523501I0J249999D01*
G01*
G37*
G04 #@! TD.AperFunction*
G04 #@! TA.AperFunction,SMDPad,CuDef*
G36*
G01*
X138153000Y-77069800D02*
X138453000Y-77069800D01*
G75*
G02*
X138603000Y-77219800I0J-150000D01*
G01*
X138603000Y-79205800D01*
G75*
G02*
X138453000Y-79355800I-150000J0D01*
G01*
X138153000Y-79355800D01*
G75*
G02*
X138003000Y-79205800I0J150000D01*
G01*
X138003000Y-77219800D01*
G75*
G02*
X138153000Y-77069800I150000J0D01*
G01*
G37*
G04 #@! TD.AperFunction*
G04 #@! TA.AperFunction,SMDPad,CuDef*
G36*
G01*
X136883000Y-77069800D02*
X137183000Y-77069800D01*
G75*
G02*
X137333000Y-77219800I0J-150000D01*
G01*
X137333000Y-79205800D01*
G75*
G02*
X137183000Y-79355800I-150000J0D01*
G01*
X136883000Y-79355800D01*
G75*
G02*
X136733000Y-79205800I0J150000D01*
G01*
X136733000Y-77219800D01*
G75*
G02*
X136883000Y-77069800I150000J0D01*
G01*
G37*
G04 #@! TD.AperFunction*
G04 #@! TA.AperFunction,SMDPad,CuDef*
G36*
G01*
X135613000Y-77069800D02*
X135913000Y-77069800D01*
G75*
G02*
X136063000Y-77219800I0J-150000D01*
G01*
X136063000Y-79205800D01*
G75*
G02*
X135913000Y-79355800I-150000J0D01*
G01*
X135613000Y-79355800D01*
G75*
G02*
X135463000Y-79205800I0J150000D01*
G01*
X135463000Y-77219800D01*
G75*
G02*
X135613000Y-77069800I150000J0D01*
G01*
G37*
G04 #@! TD.AperFunction*
G04 #@! TA.AperFunction,SMDPad,CuDef*
G36*
G01*
X134343000Y-77069800D02*
X134643000Y-77069800D01*
G75*
G02*
X134793000Y-77219800I0J-150000D01*
G01*
X134793000Y-79205800D01*
G75*
G02*
X134643000Y-79355800I-150000J0D01*
G01*
X134343000Y-79355800D01*
G75*
G02*
X134193000Y-79205800I0J150000D01*
G01*
X134193000Y-77219800D01*
G75*
G02*
X134343000Y-77069800I150000J0D01*
G01*
G37*
G04 #@! TD.AperFunction*
G04 #@! TA.AperFunction,SMDPad,CuDef*
G36*
G01*
X133073000Y-77069800D02*
X133373000Y-77069800D01*
G75*
G02*
X133523000Y-77219800I0J-150000D01*
G01*
X133523000Y-79205800D01*
G75*
G02*
X133373000Y-79355800I-150000J0D01*
G01*
X133073000Y-79355800D01*
G75*
G02*
X132923000Y-79205800I0J150000D01*
G01*
X132923000Y-77219800D01*
G75*
G02*
X133073000Y-77069800I150000J0D01*
G01*
G37*
G04 #@! TD.AperFunction*
G04 #@! TA.AperFunction,SMDPad,CuDef*
G36*
G01*
X131803000Y-77069800D02*
X132103000Y-77069800D01*
G75*
G02*
X132253000Y-77219800I0J-150000D01*
G01*
X132253000Y-79205800D01*
G75*
G02*
X132103000Y-79355800I-150000J0D01*
G01*
X131803000Y-79355800D01*
G75*
G02*
X131653000Y-79205800I0J150000D01*
G01*
X131653000Y-77219800D01*
G75*
G02*
X131803000Y-77069800I150000J0D01*
G01*
G37*
G04 #@! TD.AperFunction*
G04 #@! TA.AperFunction,SMDPad,CuDef*
G36*
G01*
X130533000Y-77069800D02*
X130833000Y-77069800D01*
G75*
G02*
X130983000Y-77219800I0J-150000D01*
G01*
X130983000Y-79205800D01*
G75*
G02*
X130833000Y-79355800I-150000J0D01*
G01*
X130533000Y-79355800D01*
G75*
G02*
X130383000Y-79205800I0J150000D01*
G01*
X130383000Y-77219800D01*
G75*
G02*
X130533000Y-77069800I150000J0D01*
G01*
G37*
G04 #@! TD.AperFunction*
G04 #@! TA.AperFunction,SMDPad,CuDef*
G36*
G01*
X129263000Y-77069800D02*
X129563000Y-77069800D01*
G75*
G02*
X129713000Y-77219800I0J-150000D01*
G01*
X129713000Y-79205800D01*
G75*
G02*
X129563000Y-79355800I-150000J0D01*
G01*
X129263000Y-79355800D01*
G75*
G02*
X129113000Y-79205800I0J150000D01*
G01*
X129113000Y-77219800D01*
G75*
G02*
X129263000Y-77069800I150000J0D01*
G01*
G37*
G04 #@! TD.AperFunction*
G04 #@! TA.AperFunction,SMDPad,CuDef*
G36*
G01*
X129263000Y-82142000D02*
X129563000Y-82142000D01*
G75*
G02*
X129713000Y-82292000I0J-150000D01*
G01*
X129713000Y-85040000D01*
G75*
G02*
X129563000Y-85190000I-150000J0D01*
G01*
X129263000Y-85190000D01*
G75*
G02*
X129113000Y-85040000I0J150000D01*
G01*
X129113000Y-82292000D01*
G75*
G02*
X129263000Y-82142000I150000J0D01*
G01*
G37*
G04 #@! TD.AperFunction*
G04 #@! TA.AperFunction,SMDPad,CuDef*
G36*
G01*
X130533000Y-82142000D02*
X130833000Y-82142000D01*
G75*
G02*
X130983000Y-82292000I0J-150000D01*
G01*
X130983000Y-85040000D01*
G75*
G02*
X130833000Y-85190000I-150000J0D01*
G01*
X130533000Y-85190000D01*
G75*
G02*
X130383000Y-85040000I0J150000D01*
G01*
X130383000Y-82292000D01*
G75*
G02*
X130533000Y-82142000I150000J0D01*
G01*
G37*
G04 #@! TD.AperFunction*
G04 #@! TA.AperFunction,SMDPad,CuDef*
G36*
G01*
X131803000Y-82142000D02*
X132103000Y-82142000D01*
G75*
G02*
X132253000Y-82292000I0J-150000D01*
G01*
X132253000Y-85040000D01*
G75*
G02*
X132103000Y-85190000I-150000J0D01*
G01*
X131803000Y-85190000D01*
G75*
G02*
X131653000Y-85040000I0J150000D01*
G01*
X131653000Y-82292000D01*
G75*
G02*
X131803000Y-82142000I150000J0D01*
G01*
G37*
G04 #@! TD.AperFunction*
G04 #@! TA.AperFunction,SMDPad,CuDef*
G36*
G01*
X133073000Y-82142000D02*
X133373000Y-82142000D01*
G75*
G02*
X133523000Y-82292000I0J-150000D01*
G01*
X133523000Y-85040000D01*
G75*
G02*
X133373000Y-85190000I-150000J0D01*
G01*
X133073000Y-85190000D01*
G75*
G02*
X132923000Y-85040000I0J150000D01*
G01*
X132923000Y-82292000D01*
G75*
G02*
X133073000Y-82142000I150000J0D01*
G01*
G37*
G04 #@! TD.AperFunction*
G04 #@! TA.AperFunction,SMDPad,CuDef*
G36*
G01*
X134343000Y-82142000D02*
X134643000Y-82142000D01*
G75*
G02*
X134793000Y-82292000I0J-150000D01*
G01*
X134793000Y-85040000D01*
G75*
G02*
X134643000Y-85190000I-150000J0D01*
G01*
X134343000Y-85190000D01*
G75*
G02*
X134193000Y-85040000I0J150000D01*
G01*
X134193000Y-82292000D01*
G75*
G02*
X134343000Y-82142000I150000J0D01*
G01*
G37*
G04 #@! TD.AperFunction*
G04 #@! TA.AperFunction,SMDPad,CuDef*
G36*
G01*
X135613000Y-82142000D02*
X135913000Y-82142000D01*
G75*
G02*
X136063000Y-82292000I0J-150000D01*
G01*
X136063000Y-85040000D01*
G75*
G02*
X135913000Y-85190000I-150000J0D01*
G01*
X135613000Y-85190000D01*
G75*
G02*
X135463000Y-85040000I0J150000D01*
G01*
X135463000Y-82292000D01*
G75*
G02*
X135613000Y-82142000I150000J0D01*
G01*
G37*
G04 #@! TD.AperFunction*
G04 #@! TA.AperFunction,SMDPad,CuDef*
G36*
G01*
X136883000Y-82396000D02*
X137183000Y-82396000D01*
G75*
G02*
X137333000Y-82546000I0J-150000D01*
G01*
X137333000Y-84786000D01*
G75*
G02*
X137183000Y-84936000I-150000J0D01*
G01*
X136883000Y-84936000D01*
G75*
G02*
X136733000Y-84786000I0J150000D01*
G01*
X136733000Y-82546000D01*
G75*
G02*
X136883000Y-82396000I150000J0D01*
G01*
G37*
G04 #@! TD.AperFunction*
G04 #@! TA.AperFunction,SMDPad,CuDef*
G36*
G01*
X138153000Y-82396000D02*
X138453000Y-82396000D01*
G75*
G02*
X138603000Y-82546000I0J-150000D01*
G01*
X138603000Y-84786000D01*
G75*
G02*
X138453000Y-84936000I-150000J0D01*
G01*
X138153000Y-84936000D01*
G75*
G02*
X138003000Y-84786000I0J150000D01*
G01*
X138003000Y-82546000D01*
G75*
G02*
X138153000Y-82396000I150000J0D01*
G01*
G37*
G04 #@! TD.AperFunction*
G04 #@! TA.AperFunction,SMDPad,CuDef*
G36*
G01*
X126164500Y-75171000D02*
X124914500Y-75171000D01*
G75*
G02*
X124664500Y-74921000I0J250000D01*
G01*
X124664500Y-74171000D01*
G75*
G02*
X124914500Y-73921000I250000J0D01*
G01*
X126164500Y-73921000D01*
G75*
G02*
X126414500Y-74171000I0J-250000D01*
G01*
X126414500Y-74921000D01*
G75*
G02*
X126164500Y-75171000I-250000J0D01*
G01*
G37*
G04 #@! TD.AperFunction*
G04 #@! TA.AperFunction,SMDPad,CuDef*
G36*
G01*
X126164500Y-77971000D02*
X124914500Y-77971000D01*
G75*
G02*
X124664500Y-77721000I0J250000D01*
G01*
X124664500Y-76971000D01*
G75*
G02*
X124914500Y-76721000I250000J0D01*
G01*
X126164500Y-76721000D01*
G75*
G02*
X126414500Y-76971000I0J-250000D01*
G01*
X126414500Y-77721000D01*
G75*
G02*
X126164500Y-77971000I-250000J0D01*
G01*
G37*
G04 #@! TD.AperFunction*
D10*
X121996200Y-76418200D03*
X121996200Y-73918200D03*
X121996200Y-71918200D03*
D11*
X121996200Y-69418200D03*
D12*
X119286200Y-66348200D03*
X119286200Y-79488200D03*
D13*
X147320000Y-63309500D03*
X147320000Y-65849500D03*
X144780000Y-63309500D03*
X144780000Y-65849500D03*
X142240000Y-63309500D03*
X142240000Y-65849500D03*
X139700000Y-63309500D03*
X139700000Y-65849500D03*
X137160000Y-63309500D03*
D14*
X137160000Y-65849500D03*
D15*
X141664000Y-74295000D03*
X133164000Y-74295000D03*
D16*
X125501000Y-62978000D03*
X125501000Y-67578000D03*
X125501000Y-65278000D03*
D17*
X131801000Y-65278000D03*
D18*
X121815500Y-83248500D03*
X126215500Y-83248500D03*
D19*
X139446000Y-77978000D03*
X139446000Y-78994000D03*
X142214600Y-77190600D03*
X148691600Y-76073000D03*
X148717000Y-74879200D03*
X147421600Y-74879200D03*
X147447000Y-76022200D03*
X133985000Y-68580000D03*
X135255000Y-68580000D03*
X128270000Y-66675000D03*
X129540000Y-66675000D03*
X129540000Y-67945000D03*
X133985000Y-67310000D03*
X135255000Y-67310000D03*
X135255000Y-66040000D03*
X133985000Y-66040000D03*
X141160500Y-77152500D03*
X129984500Y-81280000D03*
X140144500Y-82232500D03*
X140119923Y-80763388D03*
X138620500Y-80454500D03*
X144780000Y-82677000D03*
X143700500Y-77664800D03*
X128143000Y-81597500D03*
X145097500Y-68135500D03*
X133159500Y-80518000D03*
X132016500Y-80518000D03*
X139382500Y-84582000D03*
X136461500Y-76200000D03*
X147764500Y-67945000D03*
D20*
X149161500Y-73279000D02*
X149161500Y-73215500D01*
X149161500Y-73869015D02*
X149161500Y-73215500D01*
D21*
X148717000Y-74313515D02*
X149161500Y-73869015D01*
X148717000Y-74879200D02*
X148717000Y-74313515D01*
X149288500Y-63436500D02*
X149161500Y-63309500D01*
X149288500Y-64389000D02*
X149288500Y-63436500D01*
X149415500Y-64516000D02*
X149288500Y-64389000D01*
D20*
X149161500Y-73215500D02*
X149415500Y-72961500D01*
X149415500Y-72961500D02*
X149415500Y-64516000D01*
X123635700Y-80073500D02*
X124856000Y-80073500D01*
X121815500Y-81893700D02*
X123635700Y-80073500D01*
X121815500Y-83248500D02*
X121815500Y-81893700D01*
X125473000Y-77219000D02*
X126238000Y-77219000D01*
X124856000Y-79373500D02*
X124841000Y-79358500D01*
X124856000Y-80073500D02*
X124856000Y-79373500D01*
X124841000Y-79358500D02*
X124841000Y-77851000D01*
X124841000Y-77851000D02*
X125473000Y-77219000D01*
D22*
X128587500Y-69156500D02*
X127009000Y-67578000D01*
X127113000Y-77219000D02*
X127317500Y-77014500D01*
X126238000Y-77219000D02*
X127113000Y-77219000D01*
X127009000Y-67578000D02*
X125501000Y-67578000D01*
X127317500Y-77014500D02*
X127317500Y-73914000D01*
X127317500Y-73914000D02*
X128587500Y-72644000D01*
D20*
X128397000Y-70358000D02*
X127263000Y-70358000D01*
X128587500Y-70167500D02*
X128397000Y-70358000D01*
D22*
X128587500Y-70167500D02*
X128587500Y-69156500D01*
X128587500Y-72644000D02*
X128587500Y-70167500D01*
D23*
X125501000Y-65278000D02*
X131801000Y-65278000D01*
D22*
X137160000Y-63309500D02*
X134302500Y-63309500D01*
X133794500Y-63817500D02*
X133794500Y-64792500D01*
X133309000Y-65278000D02*
X131801000Y-65278000D01*
X133794500Y-64792500D02*
X133309000Y-65278000D01*
X134302500Y-63309500D02*
X133794500Y-63817500D01*
D21*
X140128535Y-80772000D02*
X140119923Y-80763388D01*
X141541500Y-80772000D02*
X140128535Y-80772000D01*
X138811000Y-83566000D02*
X140144500Y-82232500D01*
X138303000Y-83566000D02*
X138811000Y-83566000D01*
D24*
X140259212Y-80058414D02*
X140119923Y-80197703D01*
X140259212Y-76783788D02*
X140259212Y-80058414D01*
X140119923Y-80197703D02*
X140119923Y-80763388D01*
X140716000Y-76327000D02*
X140259212Y-76783788D01*
X144830800Y-76327000D02*
X140716000Y-76327000D01*
X146240500Y-74917300D02*
X144830800Y-76327000D01*
X148399500Y-72106000D02*
X148463000Y-72042500D01*
X148463000Y-72042500D02*
X148429500Y-72009000D01*
X146304000Y-72009000D02*
X146240500Y-72072500D01*
X148429500Y-72009000D02*
X146304000Y-72009000D01*
X146240500Y-72072500D02*
X146240500Y-74917300D01*
D20*
X129584501Y-80880001D02*
X129984500Y-81280000D01*
X128460500Y-79756000D02*
X129584501Y-80880001D01*
X128460500Y-74231500D02*
X128460500Y-79756000D01*
X132255500Y-70436500D02*
X128460500Y-74231500D01*
X132255500Y-65732500D02*
X132255500Y-70436500D01*
X131801000Y-65278000D02*
X132255500Y-65732500D01*
D24*
X143510000Y-72449000D02*
X141664000Y-74295000D01*
X143510000Y-70040500D02*
X143510000Y-72449000D01*
X130683000Y-78616000D02*
X130683000Y-76581000D01*
X131254500Y-76009500D02*
X135572500Y-76009500D01*
X139164000Y-74295000D02*
X141664000Y-74295000D01*
X130683000Y-76581000D02*
X131254500Y-76009500D01*
X135572500Y-76009500D02*
X137287000Y-74295000D01*
X137287000Y-74295000D02*
X139164000Y-74295000D01*
X130664000Y-74295000D02*
X133164000Y-74295000D01*
X129413000Y-75546000D02*
X130664000Y-74295000D01*
X129413000Y-78616000D02*
X129413000Y-75546000D01*
X133164000Y-72479000D02*
X135602500Y-70040500D01*
X133164000Y-74295000D02*
X133164000Y-72479000D01*
X134493000Y-78616000D02*
X134493000Y-79121000D01*
X134493000Y-79121000D02*
X134493000Y-79565500D01*
X134493000Y-79565500D02*
X135382000Y-80454500D01*
X135382000Y-80454500D02*
X138620500Y-80454500D01*
X145859500Y-81597500D02*
X144780000Y-82677000D01*
X145859500Y-80757000D02*
X145859500Y-81597500D01*
X143030000Y-81915000D02*
X143700500Y-81244500D01*
X143700500Y-81244500D02*
X143700500Y-80757000D01*
X147955000Y-80772000D02*
X147955000Y-81259500D01*
X147955000Y-81259500D02*
X147955000Y-82740500D01*
X147955000Y-82740500D02*
X146617199Y-84078301D01*
X141605000Y-81915000D02*
X141605000Y-83248500D01*
X141605000Y-81915000D02*
X143030000Y-81915000D01*
X142430500Y-84074000D02*
X143129000Y-84074000D01*
X146617199Y-84078301D02*
X143129000Y-84074000D01*
X141605000Y-83248500D02*
X142430500Y-84074000D01*
X143129000Y-84074000D02*
X142752301Y-84078301D01*
X140843000Y-81915000D02*
X141605000Y-81915000D01*
X134493000Y-83566000D02*
X134493000Y-82359500D01*
X140394198Y-81466198D02*
X140843000Y-81915000D01*
X135386302Y-81466198D02*
X140394198Y-81466198D01*
X134493000Y-82359500D02*
X135386302Y-81466198D01*
X143700500Y-80757000D02*
X143700500Y-78676500D01*
X143700500Y-78676500D02*
X143700500Y-77664800D01*
X143700500Y-78882000D02*
X143700500Y-78676500D01*
D20*
X145097500Y-68072000D02*
X147320000Y-65849500D01*
X145097500Y-68135500D02*
X145097500Y-68072000D01*
X127952500Y-81788000D02*
X128143000Y-81597500D01*
X126215500Y-83248500D02*
X127676000Y-81788000D01*
X127676000Y-81788000D02*
X127952500Y-81788000D01*
X124590000Y-74419000D02*
X126238000Y-74419000D01*
X121996200Y-76418200D02*
X122590800Y-76418200D01*
X122590800Y-76418200D02*
X124590000Y-74419000D01*
D24*
X133159500Y-78679500D02*
X133223000Y-78616000D01*
X133159500Y-80518000D02*
X133159500Y-78679500D01*
X132016500Y-78679500D02*
X131953000Y-78616000D01*
X132016500Y-80518000D02*
X132016500Y-78679500D01*
X139382500Y-84899500D02*
X139382500Y-84582000D01*
X135813800Y-83616800D02*
X135813800Y-84696300D01*
X135763000Y-83566000D02*
X135813800Y-83616800D01*
X135813800Y-84696300D02*
X136514690Y-85397190D01*
X136514690Y-85397190D02*
X138884810Y-85397190D01*
X138884810Y-85397190D02*
X139382500Y-84899500D01*
X137330000Y-64579500D02*
X137160000Y-64749500D01*
X148463000Y-69680000D02*
X148717000Y-69426000D01*
X137160000Y-64749500D02*
X137160000Y-65849500D01*
X148463000Y-70167500D02*
X148463000Y-69680000D01*
X148717000Y-69426000D02*
X148717000Y-64770000D01*
X148717000Y-64770000D02*
X148526500Y-64579500D01*
X148526500Y-64579500D02*
X137330000Y-64579500D01*
X135763000Y-78616000D02*
X135763000Y-76898500D01*
X135763000Y-76898500D02*
X136061501Y-76599999D01*
X136061501Y-76599999D02*
X136461500Y-76200000D01*
X147364501Y-68598999D02*
X147364501Y-68344999D01*
X144653000Y-71310500D02*
X147364501Y-68598999D01*
X144653000Y-75438000D02*
X144653000Y-71310500D01*
X147364501Y-68344999D02*
X147764500Y-67945000D01*
X144221200Y-75869800D02*
X144653000Y-75438000D01*
X138746023Y-75869800D02*
X144221200Y-75869800D01*
X137033000Y-77582823D02*
X138746023Y-75869800D01*
X137033000Y-78616000D02*
X137033000Y-77582823D01*
D21*
X122491500Y-62230000D02*
X122618500Y-62103000D01*
X124638000Y-70358000D02*
X123825000Y-69545000D01*
X125213000Y-70358000D02*
X124638000Y-70358000D01*
X123825000Y-69545000D02*
X123825000Y-66167000D01*
X123825000Y-66167000D02*
X122491500Y-64833500D01*
X122491500Y-64833500D02*
X122491500Y-62230000D01*
D25*
X119349498Y-61603320D02*
X119313188Y-61723018D01*
X119300928Y-61847500D01*
X119304000Y-62261750D01*
X119462750Y-62420500D01*
X120387000Y-62420500D01*
X120387000Y-62400500D01*
X120641000Y-62400500D01*
X120641000Y-62420500D01*
X120661000Y-62420500D01*
X120661000Y-62674500D01*
X120641000Y-62674500D01*
X120641000Y-63723750D01*
X120799750Y-63882500D01*
X121089000Y-63885572D01*
X121213482Y-63873312D01*
X121333180Y-63837002D01*
X121443494Y-63778037D01*
X121540185Y-63698685D01*
X121619537Y-63601994D01*
X121634509Y-63573984D01*
X121647133Y-63589367D01*
X121754900Y-63677810D01*
X121754900Y-64797316D01*
X121751336Y-64833500D01*
X121754900Y-64869683D01*
X121754900Y-64869685D01*
X121765558Y-64977898D01*
X121807678Y-65116748D01*
X121876076Y-65244712D01*
X121968125Y-65356874D01*
X121996232Y-65379941D01*
X123088401Y-66472111D01*
X123088400Y-68054366D01*
X123040380Y-68028698D01*
X122920682Y-67992388D01*
X122796200Y-67980128D01*
X122281950Y-67983200D01*
X122123200Y-68141950D01*
X122123200Y-69291200D01*
X122143200Y-69291200D01*
X122143200Y-69545200D01*
X122123200Y-69545200D01*
X122123200Y-69565200D01*
X121869200Y-69565200D01*
X121869200Y-69545200D01*
X120719950Y-69545200D01*
X120561200Y-69703950D01*
X120558128Y-70218200D01*
X120570388Y-70342682D01*
X120606698Y-70462380D01*
X120665663Y-70572694D01*
X120745015Y-70669385D01*
X120841706Y-70748737D01*
X120952020Y-70807702D01*
X121071718Y-70844012D01*
X121109147Y-70847698D01*
X120921021Y-71035824D01*
X120769537Y-71262535D01*
X120665194Y-71514444D01*
X120612000Y-71781868D01*
X120612000Y-72054532D01*
X120665194Y-72321956D01*
X120769537Y-72573865D01*
X120921021Y-72800576D01*
X121038645Y-72918200D01*
X120921021Y-73035824D01*
X120769537Y-73262535D01*
X120665194Y-73514444D01*
X120612000Y-73781868D01*
X120612000Y-74054532D01*
X120665194Y-74321956D01*
X120769537Y-74573865D01*
X120921021Y-74800576D01*
X121113824Y-74993379D01*
X121340535Y-75144863D01*
X121396876Y-75168200D01*
X121340535Y-75191537D01*
X121113824Y-75343021D01*
X120921021Y-75535824D01*
X120769537Y-75762535D01*
X120665194Y-76014444D01*
X120612000Y-76281868D01*
X120612000Y-76554532D01*
X120665194Y-76821956D01*
X120769537Y-77073865D01*
X120921021Y-77300576D01*
X121113824Y-77493379D01*
X121340535Y-77644863D01*
X121592444Y-77749206D01*
X121859868Y-77802400D01*
X122132532Y-77802400D01*
X122399956Y-77749206D01*
X122651865Y-77644863D01*
X122878576Y-77493379D01*
X123071379Y-77300576D01*
X123222863Y-77073865D01*
X123295223Y-76899170D01*
X124532860Y-75661533D01*
X124594184Y-75694311D01*
X124751204Y-75741943D01*
X124914500Y-75758026D01*
X126164500Y-75758026D01*
X126326900Y-75742031D01*
X126326900Y-76149969D01*
X126164500Y-76133974D01*
X124914500Y-76133974D01*
X124751204Y-76150057D01*
X124594184Y-76197689D01*
X124449473Y-76275038D01*
X124322633Y-76379133D01*
X124218538Y-76505973D01*
X124141189Y-76650684D01*
X124093557Y-76807704D01*
X124077474Y-76971000D01*
X124077474Y-77501339D01*
X124062858Y-77528684D01*
X124014929Y-77686685D01*
X123998746Y-77851000D01*
X124002801Y-77892172D01*
X124002800Y-78914535D01*
X123978473Y-78927538D01*
X123851633Y-79031633D01*
X123747538Y-79158473D01*
X123706473Y-79235300D01*
X123676870Y-79235300D01*
X123635700Y-79231245D01*
X123594530Y-79235300D01*
X123471384Y-79247429D01*
X123313383Y-79295358D01*
X123167768Y-79373191D01*
X123040136Y-79477936D01*
X123013889Y-79509918D01*
X121251913Y-81271894D01*
X121219937Y-81298136D01*
X121193695Y-81330112D01*
X121193692Y-81330115D01*
X121115191Y-81425769D01*
X121037358Y-81571384D01*
X121025197Y-81611474D01*
X120615500Y-81611474D01*
X120500977Y-81622754D01*
X120390855Y-81656159D01*
X120289366Y-81710406D01*
X120200410Y-81783410D01*
X120127406Y-81872366D01*
X120073159Y-81973855D01*
X120039754Y-82083977D01*
X120028474Y-82198500D01*
X120028474Y-84298500D01*
X120039754Y-84413023D01*
X120073159Y-84523145D01*
X120127406Y-84624634D01*
X120200410Y-84713590D01*
X120289366Y-84786594D01*
X120390855Y-84840841D01*
X120500977Y-84874246D01*
X120615500Y-84885526D01*
X123015500Y-84885526D01*
X123130023Y-84874246D01*
X123240145Y-84840841D01*
X123341634Y-84786594D01*
X123430590Y-84713590D01*
X123503594Y-84624634D01*
X123557841Y-84523145D01*
X123591246Y-84413023D01*
X123602526Y-84298500D01*
X123602526Y-82198500D01*
X123591246Y-82083977D01*
X123557841Y-81973855D01*
X123503594Y-81872366D01*
X123430590Y-81783410D01*
X123341634Y-81710406D01*
X123240145Y-81656159D01*
X123238832Y-81655761D01*
X123818995Y-81075598D01*
X123851633Y-81115367D01*
X123978473Y-81219462D01*
X124123183Y-81296811D01*
X124280204Y-81344443D01*
X124443499Y-81360526D01*
X125093501Y-81360526D01*
X125256796Y-81344443D01*
X125413817Y-81296811D01*
X125558527Y-81219462D01*
X125685367Y-81115367D01*
X125697991Y-81099984D01*
X125712963Y-81127994D01*
X125792315Y-81224685D01*
X125889006Y-81304037D01*
X125999320Y-81363002D01*
X126119018Y-81399312D01*
X126243500Y-81411572D01*
X126532750Y-81408500D01*
X126691500Y-81249750D01*
X126691500Y-80200500D01*
X126671500Y-80200500D01*
X126671500Y-79946500D01*
X126691500Y-79946500D01*
X126691500Y-78897250D01*
X126532750Y-78738500D01*
X126243500Y-78735428D01*
X126119018Y-78747688D01*
X125999320Y-78783998D01*
X125889006Y-78842963D01*
X125792315Y-78922315D01*
X125712963Y-79019006D01*
X125697991Y-79047016D01*
X125685367Y-79031633D01*
X125679200Y-79026572D01*
X125679200Y-78558026D01*
X126164500Y-78558026D01*
X126327796Y-78541943D01*
X126484816Y-78494311D01*
X126629527Y-78416962D01*
X126756367Y-78312867D01*
X126841116Y-78209600D01*
X127064346Y-78209600D01*
X127113000Y-78214392D01*
X127161654Y-78209600D01*
X127161665Y-78209600D01*
X127307192Y-78195267D01*
X127493920Y-78138623D01*
X127622301Y-78070003D01*
X127622301Y-78779333D01*
X127517982Y-78747688D01*
X127393500Y-78735428D01*
X127104250Y-78738500D01*
X126945500Y-78897250D01*
X126945500Y-79946500D01*
X126965500Y-79946500D01*
X126965500Y-80200500D01*
X126945500Y-80200500D01*
X126945500Y-81249750D01*
X126987178Y-81291428D01*
X126667132Y-81611474D01*
X125015500Y-81611474D01*
X124900977Y-81622754D01*
X124790855Y-81656159D01*
X124689366Y-81710406D01*
X124600410Y-81783410D01*
X124527406Y-81872366D01*
X124473159Y-81973855D01*
X124439754Y-82083977D01*
X124428474Y-82198500D01*
X124428474Y-84298500D01*
X124439754Y-84413023D01*
X124473159Y-84523145D01*
X124527406Y-84624634D01*
X124600410Y-84713590D01*
X124689366Y-84786594D01*
X124790855Y-84840841D01*
X124900977Y-84874246D01*
X125015500Y-84885526D01*
X127415500Y-84885526D01*
X127530023Y-84874246D01*
X127640145Y-84840841D01*
X127741634Y-84786594D01*
X127830590Y-84713590D01*
X127903594Y-84624634D01*
X127957841Y-84523145D01*
X127991246Y-84413023D01*
X128002526Y-84298500D01*
X128002526Y-82646868D01*
X128026419Y-82622974D01*
X128116816Y-82614071D01*
X128223529Y-82581700D01*
X128239935Y-82581700D01*
X128430081Y-82543878D01*
X128525974Y-82504158D01*
X128525974Y-85040000D01*
X128533440Y-85115800D01*
X118362339Y-85115800D01*
X118084200Y-84837662D01*
X118084200Y-81202447D01*
X118130162Y-81295414D01*
X118504945Y-81486220D01*
X118909751Y-81600244D01*
X119329024Y-81633102D01*
X119746651Y-81583534D01*
X120146583Y-81453443D01*
X120442238Y-81295414D01*
X120598248Y-80979853D01*
X119286200Y-79667805D01*
X119272058Y-79681948D01*
X119092453Y-79502343D01*
X119106595Y-79488200D01*
X119465805Y-79488200D01*
X120777853Y-80800248D01*
X121093414Y-80644238D01*
X121284220Y-80269455D01*
X121398244Y-79864649D01*
X121431102Y-79445376D01*
X121381534Y-79027749D01*
X121251443Y-78627817D01*
X121093414Y-78332162D01*
X120777853Y-78176152D01*
X119465805Y-79488200D01*
X119106595Y-79488200D01*
X119092453Y-79474058D01*
X119272058Y-79294453D01*
X119286200Y-79308595D01*
X120598248Y-77996547D01*
X120442238Y-77680986D01*
X120067455Y-77490180D01*
X119662649Y-77376156D01*
X119243376Y-77343298D01*
X118825749Y-77392866D01*
X118425817Y-77522957D01*
X118130162Y-77680986D01*
X118084200Y-77773953D01*
X118084200Y-68618200D01*
X120558128Y-68618200D01*
X120561200Y-69132450D01*
X120719950Y-69291200D01*
X121869200Y-69291200D01*
X121869200Y-68141950D01*
X121710450Y-67983200D01*
X121196200Y-67980128D01*
X121071718Y-67992388D01*
X120952020Y-68028698D01*
X120841706Y-68087663D01*
X120745015Y-68167015D01*
X120665663Y-68263706D01*
X120606698Y-68374020D01*
X120570388Y-68493718D01*
X120558128Y-68618200D01*
X118084200Y-68618200D01*
X118084200Y-68062447D01*
X118130162Y-68155414D01*
X118504945Y-68346220D01*
X118909751Y-68460244D01*
X119329024Y-68493102D01*
X119746651Y-68443534D01*
X120146583Y-68313443D01*
X120442238Y-68155414D01*
X120598248Y-67839853D01*
X119286200Y-66527805D01*
X119272058Y-66541948D01*
X119092453Y-66362343D01*
X119106595Y-66348200D01*
X119465805Y-66348200D01*
X120777853Y-67660248D01*
X121093414Y-67504238D01*
X121284220Y-67129455D01*
X121398244Y-66724649D01*
X121431102Y-66305376D01*
X121381534Y-65887749D01*
X121251443Y-65487817D01*
X121093414Y-65192162D01*
X120777853Y-65036152D01*
X119465805Y-66348200D01*
X119106595Y-66348200D01*
X119092453Y-66334058D01*
X119272058Y-66154453D01*
X119286200Y-66168595D01*
X120598248Y-64856547D01*
X120442238Y-64540986D01*
X120067455Y-64350180D01*
X119662649Y-64236156D01*
X119243376Y-64203298D01*
X118825749Y-64252866D01*
X118425817Y-64382957D01*
X118130162Y-64540986D01*
X118084200Y-64633953D01*
X118084200Y-63247500D01*
X119300928Y-63247500D01*
X119313188Y-63371982D01*
X119349498Y-63491680D01*
X119408463Y-63601994D01*
X119487815Y-63698685D01*
X119584506Y-63778037D01*
X119694820Y-63837002D01*
X119814518Y-63873312D01*
X119939000Y-63885572D01*
X120228250Y-63882500D01*
X120387000Y-63723750D01*
X120387000Y-62674500D01*
X119462750Y-62674500D01*
X119304000Y-62833250D01*
X119300928Y-63247500D01*
X118084200Y-63247500D01*
X118084200Y-61847338D01*
X118362339Y-61569200D01*
X119367736Y-61569200D01*
X119349498Y-61603320D01*
G04 #@! TA.AperFunction,Conductor*
D26*
G36*
X119349498Y-61603320D02*
G01*
X119313188Y-61723018D01*
X119300928Y-61847500D01*
X119304000Y-62261750D01*
X119462750Y-62420500D01*
X120387000Y-62420500D01*
X120387000Y-62400500D01*
X120641000Y-62400500D01*
X120641000Y-62420500D01*
X120661000Y-62420500D01*
X120661000Y-62674500D01*
X120641000Y-62674500D01*
X120641000Y-63723750D01*
X120799750Y-63882500D01*
X121089000Y-63885572D01*
X121213482Y-63873312D01*
X121333180Y-63837002D01*
X121443494Y-63778037D01*
X121540185Y-63698685D01*
X121619537Y-63601994D01*
X121634509Y-63573984D01*
X121647133Y-63589367D01*
X121754900Y-63677810D01*
X121754900Y-64797316D01*
X121751336Y-64833500D01*
X121754900Y-64869683D01*
X121754900Y-64869685D01*
X121765558Y-64977898D01*
X121807678Y-65116748D01*
X121876076Y-65244712D01*
X121968125Y-65356874D01*
X121996232Y-65379941D01*
X123088401Y-66472111D01*
X123088400Y-68054366D01*
X123040380Y-68028698D01*
X122920682Y-67992388D01*
X122796200Y-67980128D01*
X122281950Y-67983200D01*
X122123200Y-68141950D01*
X122123200Y-69291200D01*
X122143200Y-69291200D01*
X122143200Y-69545200D01*
X122123200Y-69545200D01*
X122123200Y-69565200D01*
X121869200Y-69565200D01*
X121869200Y-69545200D01*
X120719950Y-69545200D01*
X120561200Y-69703950D01*
X120558128Y-70218200D01*
X120570388Y-70342682D01*
X120606698Y-70462380D01*
X120665663Y-70572694D01*
X120745015Y-70669385D01*
X120841706Y-70748737D01*
X120952020Y-70807702D01*
X121071718Y-70844012D01*
X121109147Y-70847698D01*
X120921021Y-71035824D01*
X120769537Y-71262535D01*
X120665194Y-71514444D01*
X120612000Y-71781868D01*
X120612000Y-72054532D01*
X120665194Y-72321956D01*
X120769537Y-72573865D01*
X120921021Y-72800576D01*
X121038645Y-72918200D01*
X120921021Y-73035824D01*
X120769537Y-73262535D01*
X120665194Y-73514444D01*
X120612000Y-73781868D01*
X120612000Y-74054532D01*
X120665194Y-74321956D01*
X120769537Y-74573865D01*
X120921021Y-74800576D01*
X121113824Y-74993379D01*
X121340535Y-75144863D01*
X121396876Y-75168200D01*
X121340535Y-75191537D01*
X121113824Y-75343021D01*
X120921021Y-75535824D01*
X120769537Y-75762535D01*
X120665194Y-76014444D01*
X120612000Y-76281868D01*
X120612000Y-76554532D01*
X120665194Y-76821956D01*
X120769537Y-77073865D01*
X120921021Y-77300576D01*
X121113824Y-77493379D01*
X121340535Y-77644863D01*
X121592444Y-77749206D01*
X121859868Y-77802400D01*
X122132532Y-77802400D01*
X122399956Y-77749206D01*
X122651865Y-77644863D01*
X122878576Y-77493379D01*
X123071379Y-77300576D01*
X123222863Y-77073865D01*
X123295223Y-76899170D01*
X124532860Y-75661533D01*
X124594184Y-75694311D01*
X124751204Y-75741943D01*
X124914500Y-75758026D01*
X126164500Y-75758026D01*
X126326900Y-75742031D01*
X126326900Y-76149969D01*
X126164500Y-76133974D01*
X124914500Y-76133974D01*
X124751204Y-76150057D01*
X124594184Y-76197689D01*
X124449473Y-76275038D01*
X124322633Y-76379133D01*
X124218538Y-76505973D01*
X124141189Y-76650684D01*
X124093557Y-76807704D01*
X124077474Y-76971000D01*
X124077474Y-77501339D01*
X124062858Y-77528684D01*
X124014929Y-77686685D01*
X123998746Y-77851000D01*
X124002801Y-77892172D01*
X124002800Y-78914535D01*
X123978473Y-78927538D01*
X123851633Y-79031633D01*
X123747538Y-79158473D01*
X123706473Y-79235300D01*
X123676870Y-79235300D01*
X123635700Y-79231245D01*
X123594530Y-79235300D01*
X123471384Y-79247429D01*
X123313383Y-79295358D01*
X123167768Y-79373191D01*
X123040136Y-79477936D01*
X123013889Y-79509918D01*
X121251913Y-81271894D01*
X121219937Y-81298136D01*
X121193695Y-81330112D01*
X121193692Y-81330115D01*
X121115191Y-81425769D01*
X121037358Y-81571384D01*
X121025197Y-81611474D01*
X120615500Y-81611474D01*
X120500977Y-81622754D01*
X120390855Y-81656159D01*
X120289366Y-81710406D01*
X120200410Y-81783410D01*
X120127406Y-81872366D01*
X120073159Y-81973855D01*
X120039754Y-82083977D01*
X120028474Y-82198500D01*
X120028474Y-84298500D01*
X120039754Y-84413023D01*
X120073159Y-84523145D01*
X120127406Y-84624634D01*
X120200410Y-84713590D01*
X120289366Y-84786594D01*
X120390855Y-84840841D01*
X120500977Y-84874246D01*
X120615500Y-84885526D01*
X123015500Y-84885526D01*
X123130023Y-84874246D01*
X123240145Y-84840841D01*
X123341634Y-84786594D01*
X123430590Y-84713590D01*
X123503594Y-84624634D01*
X123557841Y-84523145D01*
X123591246Y-84413023D01*
X123602526Y-84298500D01*
X123602526Y-82198500D01*
X123591246Y-82083977D01*
X123557841Y-81973855D01*
X123503594Y-81872366D01*
X123430590Y-81783410D01*
X123341634Y-81710406D01*
X123240145Y-81656159D01*
X123238832Y-81655761D01*
X123818995Y-81075598D01*
X123851633Y-81115367D01*
X123978473Y-81219462D01*
X124123183Y-81296811D01*
X124280204Y-81344443D01*
X124443499Y-81360526D01*
X125093501Y-81360526D01*
X125256796Y-81344443D01*
X125413817Y-81296811D01*
X125558527Y-81219462D01*
X125685367Y-81115367D01*
X125697991Y-81099984D01*
X125712963Y-81127994D01*
X125792315Y-81224685D01*
X125889006Y-81304037D01*
X125999320Y-81363002D01*
X126119018Y-81399312D01*
X126243500Y-81411572D01*
X126532750Y-81408500D01*
X126691500Y-81249750D01*
X126691500Y-80200500D01*
X126671500Y-80200500D01*
X126671500Y-79946500D01*
X126691500Y-79946500D01*
X126691500Y-78897250D01*
X126532750Y-78738500D01*
X126243500Y-78735428D01*
X126119018Y-78747688D01*
X125999320Y-78783998D01*
X125889006Y-78842963D01*
X125792315Y-78922315D01*
X125712963Y-79019006D01*
X125697991Y-79047016D01*
X125685367Y-79031633D01*
X125679200Y-79026572D01*
X125679200Y-78558026D01*
X126164500Y-78558026D01*
X126327796Y-78541943D01*
X126484816Y-78494311D01*
X126629527Y-78416962D01*
X126756367Y-78312867D01*
X126841116Y-78209600D01*
X127064346Y-78209600D01*
X127113000Y-78214392D01*
X127161654Y-78209600D01*
X127161665Y-78209600D01*
X127307192Y-78195267D01*
X127493920Y-78138623D01*
X127622301Y-78070003D01*
X127622301Y-78779333D01*
X127517982Y-78747688D01*
X127393500Y-78735428D01*
X127104250Y-78738500D01*
X126945500Y-78897250D01*
X126945500Y-79946500D01*
X126965500Y-79946500D01*
X126965500Y-80200500D01*
X126945500Y-80200500D01*
X126945500Y-81249750D01*
X126987178Y-81291428D01*
X126667132Y-81611474D01*
X125015500Y-81611474D01*
X124900977Y-81622754D01*
X124790855Y-81656159D01*
X124689366Y-81710406D01*
X124600410Y-81783410D01*
X124527406Y-81872366D01*
X124473159Y-81973855D01*
X124439754Y-82083977D01*
X124428474Y-82198500D01*
X124428474Y-84298500D01*
X124439754Y-84413023D01*
X124473159Y-84523145D01*
X124527406Y-84624634D01*
X124600410Y-84713590D01*
X124689366Y-84786594D01*
X124790855Y-84840841D01*
X124900977Y-84874246D01*
X125015500Y-84885526D01*
X127415500Y-84885526D01*
X127530023Y-84874246D01*
X127640145Y-84840841D01*
X127741634Y-84786594D01*
X127830590Y-84713590D01*
X127903594Y-84624634D01*
X127957841Y-84523145D01*
X127991246Y-84413023D01*
X128002526Y-84298500D01*
X128002526Y-82646868D01*
X128026419Y-82622974D01*
X128116816Y-82614071D01*
X128223529Y-82581700D01*
X128239935Y-82581700D01*
X128430081Y-82543878D01*
X128525974Y-82504158D01*
X128525974Y-85040000D01*
X128533440Y-85115800D01*
X118362339Y-85115800D01*
X118084200Y-84837662D01*
X118084200Y-81202447D01*
X118130162Y-81295414D01*
X118504945Y-81486220D01*
X118909751Y-81600244D01*
X119329024Y-81633102D01*
X119746651Y-81583534D01*
X120146583Y-81453443D01*
X120442238Y-81295414D01*
X120598248Y-80979853D01*
X119286200Y-79667805D01*
X119272058Y-79681948D01*
X119092453Y-79502343D01*
X119106595Y-79488200D01*
X119465805Y-79488200D01*
X120777853Y-80800248D01*
X121093414Y-80644238D01*
X121284220Y-80269455D01*
X121398244Y-79864649D01*
X121431102Y-79445376D01*
X121381534Y-79027749D01*
X121251443Y-78627817D01*
X121093414Y-78332162D01*
X120777853Y-78176152D01*
X119465805Y-79488200D01*
X119106595Y-79488200D01*
X119092453Y-79474058D01*
X119272058Y-79294453D01*
X119286200Y-79308595D01*
X120598248Y-77996547D01*
X120442238Y-77680986D01*
X120067455Y-77490180D01*
X119662649Y-77376156D01*
X119243376Y-77343298D01*
X118825749Y-77392866D01*
X118425817Y-77522957D01*
X118130162Y-77680986D01*
X118084200Y-77773953D01*
X118084200Y-68618200D01*
X120558128Y-68618200D01*
X120561200Y-69132450D01*
X120719950Y-69291200D01*
X121869200Y-69291200D01*
X121869200Y-68141950D01*
X121710450Y-67983200D01*
X121196200Y-67980128D01*
X121071718Y-67992388D01*
X120952020Y-68028698D01*
X120841706Y-68087663D01*
X120745015Y-68167015D01*
X120665663Y-68263706D01*
X120606698Y-68374020D01*
X120570388Y-68493718D01*
X120558128Y-68618200D01*
X118084200Y-68618200D01*
X118084200Y-68062447D01*
X118130162Y-68155414D01*
X118504945Y-68346220D01*
X118909751Y-68460244D01*
X119329024Y-68493102D01*
X119746651Y-68443534D01*
X120146583Y-68313443D01*
X120442238Y-68155414D01*
X120598248Y-67839853D01*
X119286200Y-66527805D01*
X119272058Y-66541948D01*
X119092453Y-66362343D01*
X119106595Y-66348200D01*
X119465805Y-66348200D01*
X120777853Y-67660248D01*
X121093414Y-67504238D01*
X121284220Y-67129455D01*
X121398244Y-66724649D01*
X121431102Y-66305376D01*
X121381534Y-65887749D01*
X121251443Y-65487817D01*
X121093414Y-65192162D01*
X120777853Y-65036152D01*
X119465805Y-66348200D01*
X119106595Y-66348200D01*
X119092453Y-66334058D01*
X119272058Y-66154453D01*
X119286200Y-66168595D01*
X120598248Y-64856547D01*
X120442238Y-64540986D01*
X120067455Y-64350180D01*
X119662649Y-64236156D01*
X119243376Y-64203298D01*
X118825749Y-64252866D01*
X118425817Y-64382957D01*
X118130162Y-64540986D01*
X118084200Y-64633953D01*
X118084200Y-63247500D01*
X119300928Y-63247500D01*
X119313188Y-63371982D01*
X119349498Y-63491680D01*
X119408463Y-63601994D01*
X119487815Y-63698685D01*
X119584506Y-63778037D01*
X119694820Y-63837002D01*
X119814518Y-63873312D01*
X119939000Y-63885572D01*
X120228250Y-63882500D01*
X120387000Y-63723750D01*
X120387000Y-62674500D01*
X119462750Y-62674500D01*
X119304000Y-62833250D01*
X119300928Y-63247500D01*
X118084200Y-63247500D01*
X118084200Y-61847338D01*
X118362339Y-61569200D01*
X119367736Y-61569200D01*
X119349498Y-61603320D01*
G37*
G04 #@! TD.AperFunction*
D25*
X149250800Y-78011083D02*
X149244502Y-77990320D01*
X149185537Y-77880006D01*
X149106185Y-77783315D01*
X149009494Y-77703963D01*
X148899180Y-77644998D01*
X148779482Y-77608688D01*
X148655000Y-77596428D01*
X148240750Y-77599500D01*
X148082000Y-77758250D01*
X148082000Y-78682500D01*
X148102000Y-78682500D01*
X148102000Y-78936500D01*
X148082000Y-78936500D01*
X148082000Y-78956500D01*
X147828000Y-78956500D01*
X147828000Y-78936500D01*
X145986500Y-78936500D01*
X145986500Y-78956500D01*
X145732500Y-78956500D01*
X145732500Y-78936500D01*
X144683250Y-78936500D01*
X144524500Y-79095250D01*
X144521428Y-79384500D01*
X144533688Y-79508982D01*
X144569998Y-79628680D01*
X144628963Y-79738994D01*
X144708315Y-79835685D01*
X144805006Y-79915037D01*
X144833016Y-79930009D01*
X144817633Y-79942633D01*
X144713538Y-80069473D01*
X144636189Y-80214183D01*
X144588557Y-80371204D01*
X144572474Y-80534499D01*
X144572474Y-81184501D01*
X144588557Y-81347796D01*
X144636189Y-81504817D01*
X144713538Y-81649527D01*
X144749051Y-81692800D01*
X144683065Y-81692800D01*
X144492919Y-81730622D01*
X144313807Y-81804813D01*
X144152609Y-81912522D01*
X144015522Y-82049609D01*
X143907813Y-82210807D01*
X143833622Y-82389919D01*
X143795800Y-82580065D01*
X143795800Y-82773935D01*
X143833622Y-82964081D01*
X143907813Y-83143193D01*
X144015522Y-83304391D01*
X144077100Y-83365969D01*
X143164275Y-83364843D01*
X143163835Y-83364800D01*
X143159771Y-83364800D01*
X143155736Y-83364449D01*
X143125392Y-83364795D01*
X143095040Y-83364758D01*
X143094608Y-83364800D01*
X142724260Y-83364800D01*
X142314200Y-82954740D01*
X142314200Y-82624200D01*
X142995172Y-82624200D01*
X143030000Y-82627630D01*
X143064828Y-82624200D01*
X143064835Y-82624200D01*
X143169027Y-82613938D01*
X143302712Y-82573385D01*
X143425917Y-82507531D01*
X143533906Y-82418906D01*
X143556112Y-82391848D01*
X144177357Y-81770604D01*
X144204405Y-81748406D01*
X144226604Y-81721357D01*
X144226612Y-81721349D01*
X144293030Y-81640418D01*
X144293031Y-81640417D01*
X144358885Y-81517212D01*
X144399438Y-81383527D01*
X144409700Y-81279335D01*
X144409700Y-81279329D01*
X144413130Y-81244501D01*
X144409700Y-81209673D01*
X144409700Y-78347469D01*
X144464978Y-78292191D01*
X144524523Y-78203076D01*
X144521428Y-78234500D01*
X144524500Y-78523750D01*
X144683250Y-78682500D01*
X145732500Y-78682500D01*
X145732500Y-77758250D01*
X145986500Y-77758250D01*
X145986500Y-78682500D01*
X147828000Y-78682500D01*
X147828000Y-77758250D01*
X147669250Y-77599500D01*
X147255000Y-77596428D01*
X147130518Y-77608688D01*
X147010820Y-77644998D01*
X146907250Y-77700358D01*
X146803680Y-77644998D01*
X146683982Y-77608688D01*
X146559500Y-77596428D01*
X146145250Y-77599500D01*
X145986500Y-77758250D01*
X145732500Y-77758250D01*
X145573750Y-77599500D01*
X145159500Y-77596428D01*
X145035018Y-77608688D01*
X144915320Y-77644998D01*
X144805006Y-77703963D01*
X144708315Y-77783315D01*
X144671480Y-77828199D01*
X144684700Y-77761735D01*
X144684700Y-77567865D01*
X144646878Y-77377719D01*
X144572687Y-77198607D01*
X144464978Y-77037409D01*
X144463769Y-77036200D01*
X144795972Y-77036200D01*
X144830800Y-77039630D01*
X144865628Y-77036200D01*
X144865635Y-77036200D01*
X144969827Y-77025938D01*
X145103512Y-76985385D01*
X145226717Y-76919531D01*
X145334706Y-76830906D01*
X145356913Y-76803847D01*
X146717347Y-75443413D01*
X146744406Y-75421206D01*
X146833031Y-75313217D01*
X146898885Y-75190012D01*
X146939438Y-75056327D01*
X146949700Y-74952135D01*
X146949700Y-74952128D01*
X146953130Y-74917300D01*
X146949700Y-74882472D01*
X146949700Y-73019814D01*
X146964867Y-73007367D01*
X147002500Y-72961511D01*
X147040133Y-73007367D01*
X147166973Y-73111462D01*
X147311683Y-73188811D01*
X147468704Y-73236443D01*
X147631999Y-73252526D01*
X148532001Y-73252526D01*
X148695296Y-73236443D01*
X148852317Y-73188811D01*
X148997027Y-73111462D01*
X149123867Y-73007367D01*
X149227962Y-72880527D01*
X149250801Y-72837799D01*
X149250800Y-78011083D01*
G04 #@! TA.AperFunction,Conductor*
D26*
G36*
X149250800Y-78011083D02*
G01*
X149244502Y-77990320D01*
X149185537Y-77880006D01*
X149106185Y-77783315D01*
X149009494Y-77703963D01*
X148899180Y-77644998D01*
X148779482Y-77608688D01*
X148655000Y-77596428D01*
X148240750Y-77599500D01*
X148082000Y-77758250D01*
X148082000Y-78682500D01*
X148102000Y-78682500D01*
X148102000Y-78936500D01*
X148082000Y-78936500D01*
X148082000Y-78956500D01*
X147828000Y-78956500D01*
X147828000Y-78936500D01*
X145986500Y-78936500D01*
X145986500Y-78956500D01*
X145732500Y-78956500D01*
X145732500Y-78936500D01*
X144683250Y-78936500D01*
X144524500Y-79095250D01*
X144521428Y-79384500D01*
X144533688Y-79508982D01*
X144569998Y-79628680D01*
X144628963Y-79738994D01*
X144708315Y-79835685D01*
X144805006Y-79915037D01*
X144833016Y-79930009D01*
X144817633Y-79942633D01*
X144713538Y-80069473D01*
X144636189Y-80214183D01*
X144588557Y-80371204D01*
X144572474Y-80534499D01*
X144572474Y-81184501D01*
X144588557Y-81347796D01*
X144636189Y-81504817D01*
X144713538Y-81649527D01*
X144749051Y-81692800D01*
X144683065Y-81692800D01*
X144492919Y-81730622D01*
X144313807Y-81804813D01*
X144152609Y-81912522D01*
X144015522Y-82049609D01*
X143907813Y-82210807D01*
X143833622Y-82389919D01*
X143795800Y-82580065D01*
X143795800Y-82773935D01*
X143833622Y-82964081D01*
X143907813Y-83143193D01*
X144015522Y-83304391D01*
X144077100Y-83365969D01*
X143164275Y-83364843D01*
X143163835Y-83364800D01*
X143159771Y-83364800D01*
X143155736Y-83364449D01*
X143125392Y-83364795D01*
X143095040Y-83364758D01*
X143094608Y-83364800D01*
X142724260Y-83364800D01*
X142314200Y-82954740D01*
X142314200Y-82624200D01*
X142995172Y-82624200D01*
X143030000Y-82627630D01*
X143064828Y-82624200D01*
X143064835Y-82624200D01*
X143169027Y-82613938D01*
X143302712Y-82573385D01*
X143425917Y-82507531D01*
X143533906Y-82418906D01*
X143556112Y-82391848D01*
X144177357Y-81770604D01*
X144204405Y-81748406D01*
X144226604Y-81721357D01*
X144226612Y-81721349D01*
X144293030Y-81640418D01*
X144293031Y-81640417D01*
X144358885Y-81517212D01*
X144399438Y-81383527D01*
X144409700Y-81279335D01*
X144409700Y-81279329D01*
X144413130Y-81244501D01*
X144409700Y-81209673D01*
X144409700Y-78347469D01*
X144464978Y-78292191D01*
X144524523Y-78203076D01*
X144521428Y-78234500D01*
X144524500Y-78523750D01*
X144683250Y-78682500D01*
X145732500Y-78682500D01*
X145732500Y-77758250D01*
X145986500Y-77758250D01*
X145986500Y-78682500D01*
X147828000Y-78682500D01*
X147828000Y-77758250D01*
X147669250Y-77599500D01*
X147255000Y-77596428D01*
X147130518Y-77608688D01*
X147010820Y-77644998D01*
X146907250Y-77700358D01*
X146803680Y-77644998D01*
X146683982Y-77608688D01*
X146559500Y-77596428D01*
X146145250Y-77599500D01*
X145986500Y-77758250D01*
X145732500Y-77758250D01*
X145573750Y-77599500D01*
X145159500Y-77596428D01*
X145035018Y-77608688D01*
X144915320Y-77644998D01*
X144805006Y-77703963D01*
X144708315Y-77783315D01*
X144671480Y-77828199D01*
X144684700Y-77761735D01*
X144684700Y-77567865D01*
X144646878Y-77377719D01*
X144572687Y-77198607D01*
X144464978Y-77037409D01*
X144463769Y-77036200D01*
X144795972Y-77036200D01*
X144830800Y-77039630D01*
X144865628Y-77036200D01*
X144865635Y-77036200D01*
X144969827Y-77025938D01*
X145103512Y-76985385D01*
X145226717Y-76919531D01*
X145334706Y-76830906D01*
X145356913Y-76803847D01*
X146717347Y-75443413D01*
X146744406Y-75421206D01*
X146833031Y-75313217D01*
X146898885Y-75190012D01*
X146939438Y-75056327D01*
X146949700Y-74952135D01*
X146949700Y-74952128D01*
X146953130Y-74917300D01*
X146949700Y-74882472D01*
X146949700Y-73019814D01*
X146964867Y-73007367D01*
X147002500Y-72961511D01*
X147040133Y-73007367D01*
X147166973Y-73111462D01*
X147311683Y-73188811D01*
X147468704Y-73236443D01*
X147631999Y-73252526D01*
X148532001Y-73252526D01*
X148695296Y-73236443D01*
X148852317Y-73188811D01*
X148997027Y-73111462D01*
X149123867Y-73007367D01*
X149227962Y-72880527D01*
X149250801Y-72837799D01*
X149250800Y-78011083D01*
G37*
G04 #@! TD.AperFunction*
D25*
X142936022Y-77037409D02*
X142828313Y-77198607D01*
X142754122Y-77377719D01*
X142716300Y-77567865D01*
X142716300Y-77761735D01*
X142729520Y-77828199D01*
X142692685Y-77783315D01*
X142595994Y-77703963D01*
X142485680Y-77644998D01*
X142365982Y-77608688D01*
X142241500Y-77596428D01*
X141827250Y-77599500D01*
X141668500Y-77758250D01*
X141668500Y-78682500D01*
X142717750Y-78682500D01*
X142876500Y-78523750D01*
X142879572Y-78234500D01*
X142876477Y-78203076D01*
X142936022Y-78292191D01*
X142991300Y-78347469D01*
X142991300Y-78916834D01*
X142991301Y-78916843D01*
X142991300Y-80722165D01*
X142991300Y-80950739D01*
X142828526Y-81113514D01*
X142828526Y-80534499D01*
X142812443Y-80371204D01*
X142764811Y-80214183D01*
X142687462Y-80069473D01*
X142583367Y-79942633D01*
X142567984Y-79930009D01*
X142595994Y-79915037D01*
X142692685Y-79835685D01*
X142772037Y-79738994D01*
X142831002Y-79628680D01*
X142867312Y-79508982D01*
X142879572Y-79384500D01*
X142876500Y-79095250D01*
X142717750Y-78936500D01*
X141668500Y-78936500D01*
X141668500Y-78956500D01*
X141414500Y-78956500D01*
X141414500Y-78936500D01*
X141394500Y-78936500D01*
X141394500Y-78682500D01*
X141414500Y-78682500D01*
X141414500Y-77758250D01*
X141255750Y-77599500D01*
X140968412Y-77597369D01*
X140968412Y-77077548D01*
X141009759Y-77036200D01*
X142937231Y-77036200D01*
X142936022Y-77037409D01*
G04 #@! TA.AperFunction,Conductor*
D26*
G36*
X142936022Y-77037409D02*
G01*
X142828313Y-77198607D01*
X142754122Y-77377719D01*
X142716300Y-77567865D01*
X142716300Y-77761735D01*
X142729520Y-77828199D01*
X142692685Y-77783315D01*
X142595994Y-77703963D01*
X142485680Y-77644998D01*
X142365982Y-77608688D01*
X142241500Y-77596428D01*
X141827250Y-77599500D01*
X141668500Y-77758250D01*
X141668500Y-78682500D01*
X142717750Y-78682500D01*
X142876500Y-78523750D01*
X142879572Y-78234500D01*
X142876477Y-78203076D01*
X142936022Y-78292191D01*
X142991300Y-78347469D01*
X142991300Y-78916834D01*
X142991301Y-78916843D01*
X142991300Y-80722165D01*
X142991300Y-80950739D01*
X142828526Y-81113514D01*
X142828526Y-80534499D01*
X142812443Y-80371204D01*
X142764811Y-80214183D01*
X142687462Y-80069473D01*
X142583367Y-79942633D01*
X142567984Y-79930009D01*
X142595994Y-79915037D01*
X142692685Y-79835685D01*
X142772037Y-79738994D01*
X142831002Y-79628680D01*
X142867312Y-79508982D01*
X142879572Y-79384500D01*
X142876500Y-79095250D01*
X142717750Y-78936500D01*
X141668500Y-78936500D01*
X141668500Y-78956500D01*
X141414500Y-78956500D01*
X141414500Y-78936500D01*
X141394500Y-78936500D01*
X141394500Y-78682500D01*
X141414500Y-78682500D01*
X141414500Y-77758250D01*
X141255750Y-77599500D01*
X140968412Y-77597369D01*
X140968412Y-77077548D01*
X141009759Y-77036200D01*
X142937231Y-77036200D01*
X142936022Y-77037409D01*
G37*
G04 #@! TD.AperFunction*
D25*
X139566030Y-76625788D02*
X139560274Y-76644762D01*
X139550012Y-76748954D01*
X139550012Y-76748960D01*
X139546582Y-76783788D01*
X139550012Y-76818616D01*
X139550013Y-79774224D01*
X139527392Y-79801787D01*
X139469987Y-79909185D01*
X139461538Y-79924992D01*
X139458054Y-79936476D01*
X139384978Y-79827109D01*
X139247891Y-79690022D01*
X139171615Y-79639056D01*
X139192502Y-79599980D01*
X139228812Y-79480282D01*
X139241072Y-79355800D01*
X139238000Y-78498550D01*
X139079250Y-78339800D01*
X138430000Y-78339800D01*
X138430000Y-78359800D01*
X138176000Y-78359800D01*
X138176000Y-78339800D01*
X138156000Y-78339800D01*
X138156000Y-78085800D01*
X138176000Y-78085800D01*
X138176000Y-78065800D01*
X138430000Y-78065800D01*
X138430000Y-78085800D01*
X139079250Y-78085800D01*
X139238000Y-77927050D01*
X139241072Y-77069800D01*
X139228812Y-76945318D01*
X139192502Y-76825620D01*
X139133537Y-76715306D01*
X139054185Y-76618615D01*
X139024516Y-76594267D01*
X139039783Y-76579000D01*
X139580223Y-76579000D01*
X139566030Y-76625788D01*
G04 #@! TA.AperFunction,Conductor*
D26*
G36*
X139566030Y-76625788D02*
G01*
X139560274Y-76644762D01*
X139550012Y-76748954D01*
X139550012Y-76748960D01*
X139546582Y-76783788D01*
X139550012Y-76818616D01*
X139550013Y-79774224D01*
X139527392Y-79801787D01*
X139469987Y-79909185D01*
X139461538Y-79924992D01*
X139458054Y-79936476D01*
X139384978Y-79827109D01*
X139247891Y-79690022D01*
X139171615Y-79639056D01*
X139192502Y-79599980D01*
X139228812Y-79480282D01*
X139241072Y-79355800D01*
X139238000Y-78498550D01*
X139079250Y-78339800D01*
X138430000Y-78339800D01*
X138430000Y-78359800D01*
X138176000Y-78359800D01*
X138176000Y-78339800D01*
X138156000Y-78339800D01*
X138156000Y-78085800D01*
X138176000Y-78085800D01*
X138176000Y-78065800D01*
X138430000Y-78065800D01*
X138430000Y-78085800D01*
X139079250Y-78085800D01*
X139238000Y-77927050D01*
X139241072Y-77069800D01*
X139228812Y-76945318D01*
X139192502Y-76825620D01*
X139133537Y-76715306D01*
X139054185Y-76618615D01*
X139024516Y-76594267D01*
X139039783Y-76579000D01*
X139580223Y-76579000D01*
X139566030Y-76625788D01*
G37*
G04 #@! TD.AperFunction*
D25*
X136241460Y-64419225D02*
X136195477Y-64423754D01*
X136085355Y-64457159D01*
X135983866Y-64511406D01*
X135894910Y-64584410D01*
X135821906Y-64673366D01*
X135767659Y-64774855D01*
X135734254Y-64884977D01*
X135722974Y-64999500D01*
X135722974Y-66699500D01*
X135734254Y-66814023D01*
X135767659Y-66924145D01*
X135821906Y-67025634D01*
X135894910Y-67114590D01*
X135983866Y-67187594D01*
X136085355Y-67241841D01*
X136195477Y-67275246D01*
X136310000Y-67286526D01*
X138010000Y-67286526D01*
X138124523Y-67275246D01*
X138234645Y-67241841D01*
X138336134Y-67187594D01*
X138425090Y-67114590D01*
X138498094Y-67025634D01*
X138552341Y-66924145D01*
X138585746Y-66814023D01*
X138590275Y-66768040D01*
X138785751Y-66963516D01*
X139020652Y-67120471D01*
X139281659Y-67228584D01*
X139558744Y-67283700D01*
X139841256Y-67283700D01*
X140118341Y-67228584D01*
X140379348Y-67120471D01*
X140614249Y-66963516D01*
X140814016Y-66763749D01*
X140970000Y-66530301D01*
X141125984Y-66763749D01*
X141325751Y-66963516D01*
X141560652Y-67120471D01*
X141821659Y-67228584D01*
X142098744Y-67283700D01*
X142381256Y-67283700D01*
X142658341Y-67228584D01*
X142919348Y-67120471D01*
X143154249Y-66963516D01*
X143354016Y-66763749D01*
X143510000Y-66530301D01*
X143665984Y-66763749D01*
X143865751Y-66963516D01*
X144100652Y-67120471D01*
X144361659Y-67228584D01*
X144609501Y-67277883D01*
X144470109Y-67371022D01*
X144333022Y-67508109D01*
X144225313Y-67669307D01*
X144151122Y-67848419D01*
X144113300Y-68038565D01*
X144113300Y-68232435D01*
X144151122Y-68422581D01*
X144225313Y-68601693D01*
X144333022Y-68762891D01*
X144470109Y-68899978D01*
X144631307Y-69007687D01*
X144810419Y-69081878D01*
X144908290Y-69101346D01*
X144881133Y-69123633D01*
X144777038Y-69250473D01*
X144699689Y-69395183D01*
X144685609Y-69441597D01*
X144618462Y-69315973D01*
X144514367Y-69189133D01*
X144387527Y-69085038D01*
X144242817Y-69007689D01*
X144085796Y-68960057D01*
X143922501Y-68943974D01*
X143272499Y-68943974D01*
X143109204Y-68960057D01*
X142952183Y-69007689D01*
X142807473Y-69085038D01*
X142680633Y-69189133D01*
X142668009Y-69204516D01*
X142653037Y-69176506D01*
X142573685Y-69079815D01*
X142476994Y-69000463D01*
X142366680Y-68941498D01*
X142246982Y-68905188D01*
X142122500Y-68892928D01*
X141833250Y-68896000D01*
X141674500Y-69054750D01*
X141674500Y-70104000D01*
X141694500Y-70104000D01*
X141694500Y-70358000D01*
X141674500Y-70358000D01*
X141674500Y-71407250D01*
X141833250Y-71566000D01*
X142122500Y-71569072D01*
X142246982Y-71556812D01*
X142366680Y-71520502D01*
X142476994Y-71461537D01*
X142573685Y-71382185D01*
X142653037Y-71285494D01*
X142668009Y-71257484D01*
X142680633Y-71272867D01*
X142800801Y-71371486D01*
X142800801Y-72155238D01*
X142248065Y-72707974D01*
X139124000Y-72707974D01*
X139009477Y-72719254D01*
X138899355Y-72752659D01*
X138797866Y-72806906D01*
X138708910Y-72879910D01*
X138635906Y-72968866D01*
X138581659Y-73070355D01*
X138548254Y-73180477D01*
X138536974Y-73295000D01*
X138536974Y-73585800D01*
X137321827Y-73585800D01*
X137286999Y-73582370D01*
X137252171Y-73585800D01*
X137252165Y-73585800D01*
X137162499Y-73594631D01*
X137147972Y-73596062D01*
X137107419Y-73608364D01*
X137014288Y-73636615D01*
X136891083Y-73702469D01*
X136843866Y-73741219D01*
X136810151Y-73768888D01*
X136810147Y-73768892D01*
X136783094Y-73791094D01*
X136760892Y-73818147D01*
X136291026Y-74288013D01*
X136291026Y-73295000D01*
X136279746Y-73180477D01*
X136246341Y-73070355D01*
X136192094Y-72968866D01*
X136119090Y-72879910D01*
X136030134Y-72806906D01*
X135928645Y-72752659D01*
X135818523Y-72719254D01*
X135704000Y-72707974D01*
X133937986Y-72707974D01*
X135133499Y-71512461D01*
X135189999Y-71518026D01*
X135840001Y-71518026D01*
X136003296Y-71501943D01*
X136160317Y-71454311D01*
X136305027Y-71376962D01*
X136431867Y-71272867D01*
X136444491Y-71257484D01*
X136459463Y-71285494D01*
X136538815Y-71382185D01*
X136635506Y-71461537D01*
X136745820Y-71520502D01*
X136865518Y-71556812D01*
X136990000Y-71569072D01*
X137279250Y-71566000D01*
X137438000Y-71407250D01*
X137438000Y-70358000D01*
X137692000Y-70358000D01*
X137692000Y-71407250D01*
X137850750Y-71566000D01*
X138140000Y-71569072D01*
X138264482Y-71556812D01*
X138384180Y-71520502D01*
X138494494Y-71461537D01*
X138591185Y-71382185D01*
X138670537Y-71285494D01*
X138729502Y-71175180D01*
X138765812Y-71055482D01*
X138778072Y-70931000D01*
X140334428Y-70931000D01*
X140346688Y-71055482D01*
X140382998Y-71175180D01*
X140441963Y-71285494D01*
X140521315Y-71382185D01*
X140618006Y-71461537D01*
X140728320Y-71520502D01*
X140848018Y-71556812D01*
X140972500Y-71569072D01*
X141261750Y-71566000D01*
X141420500Y-71407250D01*
X141420500Y-70358000D01*
X140496250Y-70358000D01*
X140337500Y-70516750D01*
X140334428Y-70931000D01*
X138778072Y-70931000D01*
X138775000Y-70516750D01*
X138616250Y-70358000D01*
X137692000Y-70358000D01*
X137438000Y-70358000D01*
X137418000Y-70358000D01*
X137418000Y-70104000D01*
X137438000Y-70104000D01*
X137438000Y-69054750D01*
X137692000Y-69054750D01*
X137692000Y-70104000D01*
X138616250Y-70104000D01*
X138775000Y-69945250D01*
X138778072Y-69531000D01*
X140334428Y-69531000D01*
X140337500Y-69945250D01*
X140496250Y-70104000D01*
X141420500Y-70104000D01*
X141420500Y-69054750D01*
X141261750Y-68896000D01*
X140972500Y-68892928D01*
X140848018Y-68905188D01*
X140728320Y-68941498D01*
X140618006Y-69000463D01*
X140521315Y-69079815D01*
X140441963Y-69176506D01*
X140382998Y-69286820D01*
X140346688Y-69406518D01*
X140334428Y-69531000D01*
X138778072Y-69531000D01*
X138765812Y-69406518D01*
X138729502Y-69286820D01*
X138670537Y-69176506D01*
X138591185Y-69079815D01*
X138494494Y-69000463D01*
X138384180Y-68941498D01*
X138264482Y-68905188D01*
X138140000Y-68892928D01*
X137850750Y-68896000D01*
X137692000Y-69054750D01*
X137438000Y-69054750D01*
X137279250Y-68896000D01*
X136990000Y-68892928D01*
X136865518Y-68905188D01*
X136745820Y-68941498D01*
X136635506Y-69000463D01*
X136538815Y-69079815D01*
X136459463Y-69176506D01*
X136444491Y-69204516D01*
X136431867Y-69189133D01*
X136305027Y-69085038D01*
X136160317Y-69007689D01*
X136003296Y-68960057D01*
X135840001Y-68943974D01*
X135189999Y-68943974D01*
X135026704Y-68960057D01*
X134869683Y-69007689D01*
X134724973Y-69085038D01*
X134598133Y-69189133D01*
X134494038Y-69315973D01*
X134416689Y-69460683D01*
X134369057Y-69617704D01*
X134352974Y-69780999D01*
X134352974Y-70287066D01*
X132687148Y-71952892D01*
X132660095Y-71975094D01*
X132637893Y-72002147D01*
X132637888Y-72002152D01*
X132608744Y-72037665D01*
X132571470Y-72083083D01*
X132567244Y-72090990D01*
X132505615Y-72206289D01*
X132465062Y-72339973D01*
X132451370Y-72479000D01*
X132454801Y-72513838D01*
X132454801Y-72707974D01*
X131169420Y-72707974D01*
X132359368Y-71518026D01*
X132668001Y-71518026D01*
X132831296Y-71501943D01*
X132988317Y-71454311D01*
X133133027Y-71376962D01*
X133259867Y-71272867D01*
X133363962Y-71146027D01*
X133441311Y-71001317D01*
X133488943Y-70844296D01*
X133505026Y-70681001D01*
X133505026Y-69780999D01*
X133488943Y-69617704D01*
X133441311Y-69460683D01*
X133363962Y-69315973D01*
X133259867Y-69189133D01*
X133133027Y-69085038D01*
X133093700Y-69064017D01*
X133093700Y-67683965D01*
X133127134Y-67666094D01*
X133216090Y-67593090D01*
X133289094Y-67504134D01*
X133343341Y-67402645D01*
X133376746Y-67292523D01*
X133388026Y-67178000D01*
X133388026Y-66265610D01*
X133503192Y-66254267D01*
X133689920Y-66197623D01*
X133862011Y-66105639D01*
X134012849Y-65981849D01*
X134043874Y-65944045D01*
X134460545Y-65527374D01*
X134498349Y-65496349D01*
X134622139Y-65345511D01*
X134714123Y-65173420D01*
X134770767Y-64986692D01*
X134785100Y-64841164D01*
X134789893Y-64792500D01*
X134785100Y-64743835D01*
X134785100Y-64300100D01*
X136122335Y-64300100D01*
X136241460Y-64419225D01*
G04 #@! TA.AperFunction,Conductor*
D26*
G36*
X136241460Y-64419225D02*
G01*
X136195477Y-64423754D01*
X136085355Y-64457159D01*
X135983866Y-64511406D01*
X135894910Y-64584410D01*
X135821906Y-64673366D01*
X135767659Y-64774855D01*
X135734254Y-64884977D01*
X135722974Y-64999500D01*
X135722974Y-66699500D01*
X135734254Y-66814023D01*
X135767659Y-66924145D01*
X135821906Y-67025634D01*
X135894910Y-67114590D01*
X135983866Y-67187594D01*
X136085355Y-67241841D01*
X136195477Y-67275246D01*
X136310000Y-67286526D01*
X138010000Y-67286526D01*
X138124523Y-67275246D01*
X138234645Y-67241841D01*
X138336134Y-67187594D01*
X138425090Y-67114590D01*
X138498094Y-67025634D01*
X138552341Y-66924145D01*
X138585746Y-66814023D01*
X138590275Y-66768040D01*
X138785751Y-66963516D01*
X139020652Y-67120471D01*
X139281659Y-67228584D01*
X139558744Y-67283700D01*
X139841256Y-67283700D01*
X140118341Y-67228584D01*
X140379348Y-67120471D01*
X140614249Y-66963516D01*
X140814016Y-66763749D01*
X140970000Y-66530301D01*
X141125984Y-66763749D01*
X141325751Y-66963516D01*
X141560652Y-67120471D01*
X141821659Y-67228584D01*
X142098744Y-67283700D01*
X142381256Y-67283700D01*
X142658341Y-67228584D01*
X142919348Y-67120471D01*
X143154249Y-66963516D01*
X143354016Y-66763749D01*
X143510000Y-66530301D01*
X143665984Y-66763749D01*
X143865751Y-66963516D01*
X144100652Y-67120471D01*
X144361659Y-67228584D01*
X144609501Y-67277883D01*
X144470109Y-67371022D01*
X144333022Y-67508109D01*
X144225313Y-67669307D01*
X144151122Y-67848419D01*
X144113300Y-68038565D01*
X144113300Y-68232435D01*
X144151122Y-68422581D01*
X144225313Y-68601693D01*
X144333022Y-68762891D01*
X144470109Y-68899978D01*
X144631307Y-69007687D01*
X144810419Y-69081878D01*
X144908290Y-69101346D01*
X144881133Y-69123633D01*
X144777038Y-69250473D01*
X144699689Y-69395183D01*
X144685609Y-69441597D01*
X144618462Y-69315973D01*
X144514367Y-69189133D01*
X144387527Y-69085038D01*
X144242817Y-69007689D01*
X144085796Y-68960057D01*
X143922501Y-68943974D01*
X143272499Y-68943974D01*
X143109204Y-68960057D01*
X142952183Y-69007689D01*
X142807473Y-69085038D01*
X142680633Y-69189133D01*
X142668009Y-69204516D01*
X142653037Y-69176506D01*
X142573685Y-69079815D01*
X142476994Y-69000463D01*
X142366680Y-68941498D01*
X142246982Y-68905188D01*
X142122500Y-68892928D01*
X141833250Y-68896000D01*
X141674500Y-69054750D01*
X141674500Y-70104000D01*
X141694500Y-70104000D01*
X141694500Y-70358000D01*
X141674500Y-70358000D01*
X141674500Y-71407250D01*
X141833250Y-71566000D01*
X142122500Y-71569072D01*
X142246982Y-71556812D01*
X142366680Y-71520502D01*
X142476994Y-71461537D01*
X142573685Y-71382185D01*
X142653037Y-71285494D01*
X142668009Y-71257484D01*
X142680633Y-71272867D01*
X142800801Y-71371486D01*
X142800801Y-72155238D01*
X142248065Y-72707974D01*
X139124000Y-72707974D01*
X139009477Y-72719254D01*
X138899355Y-72752659D01*
X138797866Y-72806906D01*
X138708910Y-72879910D01*
X138635906Y-72968866D01*
X138581659Y-73070355D01*
X138548254Y-73180477D01*
X138536974Y-73295000D01*
X138536974Y-73585800D01*
X137321827Y-73585800D01*
X137286999Y-73582370D01*
X137252171Y-73585800D01*
X137252165Y-73585800D01*
X137162499Y-73594631D01*
X137147972Y-73596062D01*
X137107419Y-73608364D01*
X137014288Y-73636615D01*
X136891083Y-73702469D01*
X136843866Y-73741219D01*
X136810151Y-73768888D01*
X136810147Y-73768892D01*
X136783094Y-73791094D01*
X136760892Y-73818147D01*
X136291026Y-74288013D01*
X136291026Y-73295000D01*
X136279746Y-73180477D01*
X136246341Y-73070355D01*
X136192094Y-72968866D01*
X136119090Y-72879910D01*
X136030134Y-72806906D01*
X135928645Y-72752659D01*
X135818523Y-72719254D01*
X135704000Y-72707974D01*
X133937986Y-72707974D01*
X135133499Y-71512461D01*
X135189999Y-71518026D01*
X135840001Y-71518026D01*
X136003296Y-71501943D01*
X136160317Y-71454311D01*
X136305027Y-71376962D01*
X136431867Y-71272867D01*
X136444491Y-71257484D01*
X136459463Y-71285494D01*
X136538815Y-71382185D01*
X136635506Y-71461537D01*
X136745820Y-71520502D01*
X136865518Y-71556812D01*
X136990000Y-71569072D01*
X137279250Y-71566000D01*
X137438000Y-71407250D01*
X137438000Y-70358000D01*
X137692000Y-70358000D01*
X137692000Y-71407250D01*
X137850750Y-71566000D01*
X138140000Y-71569072D01*
X138264482Y-71556812D01*
X138384180Y-71520502D01*
X138494494Y-71461537D01*
X138591185Y-71382185D01*
X138670537Y-71285494D01*
X138729502Y-71175180D01*
X138765812Y-71055482D01*
X138778072Y-70931000D01*
X140334428Y-70931000D01*
X140346688Y-71055482D01*
X140382998Y-71175180D01*
X140441963Y-71285494D01*
X140521315Y-71382185D01*
X140618006Y-71461537D01*
X140728320Y-71520502D01*
X140848018Y-71556812D01*
X140972500Y-71569072D01*
X141261750Y-71566000D01*
X141420500Y-71407250D01*
X141420500Y-70358000D01*
X140496250Y-70358000D01*
X140337500Y-70516750D01*
X140334428Y-70931000D01*
X138778072Y-70931000D01*
X138775000Y-70516750D01*
X138616250Y-70358000D01*
X137692000Y-70358000D01*
X137438000Y-70358000D01*
X137418000Y-70358000D01*
X137418000Y-70104000D01*
X137438000Y-70104000D01*
X137438000Y-69054750D01*
X137692000Y-69054750D01*
X137692000Y-70104000D01*
X138616250Y-70104000D01*
X138775000Y-69945250D01*
X138778072Y-69531000D01*
X140334428Y-69531000D01*
X140337500Y-69945250D01*
X140496250Y-70104000D01*
X141420500Y-70104000D01*
X141420500Y-69054750D01*
X141261750Y-68896000D01*
X140972500Y-68892928D01*
X140848018Y-68905188D01*
X140728320Y-68941498D01*
X140618006Y-69000463D01*
X140521315Y-69079815D01*
X140441963Y-69176506D01*
X140382998Y-69286820D01*
X140346688Y-69406518D01*
X140334428Y-69531000D01*
X138778072Y-69531000D01*
X138765812Y-69406518D01*
X138729502Y-69286820D01*
X138670537Y-69176506D01*
X138591185Y-69079815D01*
X138494494Y-69000463D01*
X138384180Y-68941498D01*
X138264482Y-68905188D01*
X138140000Y-68892928D01*
X137850750Y-68896000D01*
X137692000Y-69054750D01*
X137438000Y-69054750D01*
X137279250Y-68896000D01*
X136990000Y-68892928D01*
X136865518Y-68905188D01*
X136745820Y-68941498D01*
X136635506Y-69000463D01*
X136538815Y-69079815D01*
X136459463Y-69176506D01*
X136444491Y-69204516D01*
X136431867Y-69189133D01*
X136305027Y-69085038D01*
X136160317Y-69007689D01*
X136003296Y-68960057D01*
X135840001Y-68943974D01*
X135189999Y-68943974D01*
X135026704Y-68960057D01*
X134869683Y-69007689D01*
X134724973Y-69085038D01*
X134598133Y-69189133D01*
X134494038Y-69315973D01*
X134416689Y-69460683D01*
X134369057Y-69617704D01*
X134352974Y-69780999D01*
X134352974Y-70287066D01*
X132687148Y-71952892D01*
X132660095Y-71975094D01*
X132637893Y-72002147D01*
X132637888Y-72002152D01*
X132608744Y-72037665D01*
X132571470Y-72083083D01*
X132567244Y-72090990D01*
X132505615Y-72206289D01*
X132465062Y-72339973D01*
X132451370Y-72479000D01*
X132454801Y-72513838D01*
X132454801Y-72707974D01*
X131169420Y-72707974D01*
X132359368Y-71518026D01*
X132668001Y-71518026D01*
X132831296Y-71501943D01*
X132988317Y-71454311D01*
X133133027Y-71376962D01*
X133259867Y-71272867D01*
X133363962Y-71146027D01*
X133441311Y-71001317D01*
X133488943Y-70844296D01*
X133505026Y-70681001D01*
X133505026Y-69780999D01*
X133488943Y-69617704D01*
X133441311Y-69460683D01*
X133363962Y-69315973D01*
X133259867Y-69189133D01*
X133133027Y-69085038D01*
X133093700Y-69064017D01*
X133093700Y-67683965D01*
X133127134Y-67666094D01*
X133216090Y-67593090D01*
X133289094Y-67504134D01*
X133343341Y-67402645D01*
X133376746Y-67292523D01*
X133388026Y-67178000D01*
X133388026Y-66265610D01*
X133503192Y-66254267D01*
X133689920Y-66197623D01*
X133862011Y-66105639D01*
X134012849Y-65981849D01*
X134043874Y-65944045D01*
X134460545Y-65527374D01*
X134498349Y-65496349D01*
X134622139Y-65345511D01*
X134714123Y-65173420D01*
X134770767Y-64986692D01*
X134785100Y-64841164D01*
X134789893Y-64792500D01*
X134785100Y-64743835D01*
X134785100Y-64300100D01*
X136122335Y-64300100D01*
X136241460Y-64419225D01*
G37*
G04 #@! TD.AperFunction*
D25*
X130213974Y-67178000D02*
X130225254Y-67292523D01*
X130258659Y-67402645D01*
X130312906Y-67504134D01*
X130385910Y-67593090D01*
X130474866Y-67666094D01*
X130576355Y-67720341D01*
X130686477Y-67753746D01*
X130801000Y-67765026D01*
X131417300Y-67765026D01*
X131417301Y-69199895D01*
X131413509Y-69204516D01*
X131398537Y-69176506D01*
X131319185Y-69079815D01*
X131222494Y-69000463D01*
X131112180Y-68941498D01*
X130992482Y-68905188D01*
X130868000Y-68892928D01*
X130578750Y-68896000D01*
X130420000Y-69054750D01*
X130420000Y-70104000D01*
X130440000Y-70104000D01*
X130440000Y-70358000D01*
X130420000Y-70358000D01*
X130420000Y-70378000D01*
X130166000Y-70378000D01*
X130166000Y-70358000D01*
X130146000Y-70358000D01*
X130146000Y-70104000D01*
X130166000Y-70104000D01*
X130166000Y-69054750D01*
X130007250Y-68896000D01*
X129718000Y-68892928D01*
X129593518Y-68905188D01*
X129550407Y-68918266D01*
X129507123Y-68775580D01*
X129415139Y-68603489D01*
X129411455Y-68599000D01*
X129322371Y-68490451D01*
X129322370Y-68490450D01*
X129291349Y-68452651D01*
X129253550Y-68421630D01*
X127743874Y-66911955D01*
X127712849Y-66874151D01*
X127562011Y-66750361D01*
X127389920Y-66658377D01*
X127203192Y-66601733D01*
X127057665Y-66587400D01*
X127057654Y-66587400D01*
X127033544Y-66585025D01*
X126989094Y-66501866D01*
X126928474Y-66428000D01*
X126975909Y-66370200D01*
X130213974Y-66370200D01*
X130213974Y-67178000D01*
G04 #@! TA.AperFunction,Conductor*
D26*
G36*
X130213974Y-67178000D02*
G01*
X130225254Y-67292523D01*
X130258659Y-67402645D01*
X130312906Y-67504134D01*
X130385910Y-67593090D01*
X130474866Y-67666094D01*
X130576355Y-67720341D01*
X130686477Y-67753746D01*
X130801000Y-67765026D01*
X131417300Y-67765026D01*
X131417301Y-69199895D01*
X131413509Y-69204516D01*
X131398537Y-69176506D01*
X131319185Y-69079815D01*
X131222494Y-69000463D01*
X131112180Y-68941498D01*
X130992482Y-68905188D01*
X130868000Y-68892928D01*
X130578750Y-68896000D01*
X130420000Y-69054750D01*
X130420000Y-70104000D01*
X130440000Y-70104000D01*
X130440000Y-70358000D01*
X130420000Y-70358000D01*
X130420000Y-70378000D01*
X130166000Y-70378000D01*
X130166000Y-70358000D01*
X130146000Y-70358000D01*
X130146000Y-70104000D01*
X130166000Y-70104000D01*
X130166000Y-69054750D01*
X130007250Y-68896000D01*
X129718000Y-68892928D01*
X129593518Y-68905188D01*
X129550407Y-68918266D01*
X129507123Y-68775580D01*
X129415139Y-68603489D01*
X129411455Y-68599000D01*
X129322371Y-68490451D01*
X129322370Y-68490450D01*
X129291349Y-68452651D01*
X129253550Y-68421630D01*
X127743874Y-66911955D01*
X127712849Y-66874151D01*
X127562011Y-66750361D01*
X127389920Y-66658377D01*
X127203192Y-66601733D01*
X127057665Y-66587400D01*
X127057654Y-66587400D01*
X127033544Y-66585025D01*
X126989094Y-66501866D01*
X126928474Y-66428000D01*
X126975909Y-66370200D01*
X130213974Y-66370200D01*
X130213974Y-67178000D01*
G37*
G04 #@! TD.AperFunction*
D25*
X149250801Y-61847340D02*
X149250801Y-64302521D01*
X149220906Y-64266094D01*
X149193843Y-64243884D01*
X149052614Y-64102654D01*
X149030406Y-64075594D01*
X148922417Y-63986969D01*
X148799212Y-63921115D01*
X148665527Y-63880562D01*
X148636989Y-63877751D01*
X148699084Y-63727841D01*
X148754200Y-63450756D01*
X148754200Y-63168244D01*
X148699084Y-62891159D01*
X148590971Y-62630152D01*
X148434016Y-62395251D01*
X148234249Y-62195484D01*
X147999348Y-62038529D01*
X147738341Y-61930416D01*
X147461256Y-61875300D01*
X147178744Y-61875300D01*
X146901659Y-61930416D01*
X146640652Y-62038529D01*
X146405751Y-62195484D01*
X146205984Y-62395251D01*
X146050000Y-62628699D01*
X145894016Y-62395251D01*
X145694249Y-62195484D01*
X145459348Y-62038529D01*
X145198341Y-61930416D01*
X144921256Y-61875300D01*
X144638744Y-61875300D01*
X144361659Y-61930416D01*
X144100652Y-62038529D01*
X143865751Y-62195484D01*
X143665984Y-62395251D01*
X143533602Y-62593376D01*
X143435178Y-62428145D01*
X143240269Y-62211912D01*
X143006920Y-62037859D01*
X142744099Y-61912675D01*
X142596890Y-61868024D01*
X142367000Y-61989345D01*
X142367000Y-63182500D01*
X142387000Y-63182500D01*
X142387000Y-63436500D01*
X142367000Y-63436500D01*
X142367000Y-63456500D01*
X142113000Y-63456500D01*
X142113000Y-63436500D01*
X139827000Y-63436500D01*
X139827000Y-63456500D01*
X139573000Y-63456500D01*
X139573000Y-63436500D01*
X139553000Y-63436500D01*
X139553000Y-63182500D01*
X139573000Y-63182500D01*
X139573000Y-61989345D01*
X139827000Y-61989345D01*
X139827000Y-63182500D01*
X142113000Y-63182500D01*
X142113000Y-61989345D01*
X141883110Y-61868024D01*
X141735901Y-61912675D01*
X141473080Y-62037859D01*
X141239731Y-62211912D01*
X141044822Y-62428145D01*
X140970000Y-62553755D01*
X140895178Y-62428145D01*
X140700269Y-62211912D01*
X140466920Y-62037859D01*
X140204099Y-61912675D01*
X140056890Y-61868024D01*
X139827000Y-61989345D01*
X139573000Y-61989345D01*
X139343110Y-61868024D01*
X139195901Y-61912675D01*
X138933080Y-62037859D01*
X138699731Y-62211912D01*
X138504822Y-62428145D01*
X138406398Y-62593376D01*
X138274016Y-62395251D01*
X138074249Y-62195484D01*
X137839348Y-62038529D01*
X137578341Y-61930416D01*
X137301256Y-61875300D01*
X137018744Y-61875300D01*
X136741659Y-61930416D01*
X136480652Y-62038529D01*
X136245751Y-62195484D01*
X136122335Y-62318900D01*
X134351153Y-62318900D01*
X134302499Y-62314108D01*
X134253845Y-62318900D01*
X134253835Y-62318900D01*
X134108308Y-62333233D01*
X133921580Y-62389877D01*
X133749489Y-62481861D01*
X133598651Y-62605651D01*
X133567622Y-62643460D01*
X133230551Y-62980531D01*
X133216090Y-62962910D01*
X133127134Y-62889906D01*
X133025645Y-62835659D01*
X132915523Y-62802254D01*
X132801000Y-62790974D01*
X130801000Y-62790974D01*
X130686477Y-62802254D01*
X130576355Y-62835659D01*
X130474866Y-62889906D01*
X130385910Y-62962910D01*
X130312906Y-63051866D01*
X130258659Y-63153355D01*
X130225254Y-63263477D01*
X130213974Y-63378000D01*
X130213974Y-64185800D01*
X126975909Y-64185800D01*
X126961333Y-64168039D01*
X127031537Y-64082494D01*
X127090502Y-63972180D01*
X127126812Y-63852482D01*
X127139072Y-63728000D01*
X127136000Y-63263750D01*
X126977250Y-63105000D01*
X125628000Y-63105000D01*
X125628000Y-63125000D01*
X125374000Y-63125000D01*
X125374000Y-63105000D01*
X124024750Y-63105000D01*
X123866000Y-63263750D01*
X123862928Y-63728000D01*
X123875188Y-63852482D01*
X123911498Y-63972180D01*
X123970463Y-64082494D01*
X124040667Y-64168039D01*
X124012906Y-64201866D01*
X123958659Y-64303355D01*
X123925254Y-64413477D01*
X123913974Y-64528000D01*
X123913974Y-65214264D01*
X123228100Y-64528391D01*
X123228100Y-63760771D01*
X123354027Y-63693462D01*
X123480867Y-63589367D01*
X123584962Y-63462527D01*
X123662311Y-63317817D01*
X123709943Y-63160796D01*
X123726026Y-62997501D01*
X123726026Y-62228000D01*
X123862928Y-62228000D01*
X123866000Y-62692250D01*
X124024750Y-62851000D01*
X125374000Y-62851000D01*
X125374000Y-61751750D01*
X125628000Y-61751750D01*
X125628000Y-62851000D01*
X126977250Y-62851000D01*
X127136000Y-62692250D01*
X127139072Y-62228000D01*
X127126812Y-62103518D01*
X127090502Y-61983820D01*
X127031537Y-61873506D01*
X126952185Y-61776815D01*
X126855494Y-61697463D01*
X126745180Y-61638498D01*
X126625482Y-61602188D01*
X126501000Y-61589928D01*
X125786750Y-61593000D01*
X125628000Y-61751750D01*
X125374000Y-61751750D01*
X125215250Y-61593000D01*
X124501000Y-61589928D01*
X124376518Y-61602188D01*
X124256820Y-61638498D01*
X124146506Y-61697463D01*
X124049815Y-61776815D01*
X123970463Y-61873506D01*
X123911498Y-61983820D01*
X123875188Y-62103518D01*
X123862928Y-62228000D01*
X123726026Y-62228000D01*
X123726026Y-62097499D01*
X123709943Y-61934204D01*
X123662311Y-61777183D01*
X123584962Y-61632473D01*
X123533035Y-61569200D01*
X148972662Y-61569200D01*
X149250801Y-61847340D01*
G04 #@! TA.AperFunction,Conductor*
D26*
G36*
X149250801Y-61847340D02*
G01*
X149250801Y-64302521D01*
X149220906Y-64266094D01*
X149193843Y-64243884D01*
X149052614Y-64102654D01*
X149030406Y-64075594D01*
X148922417Y-63986969D01*
X148799212Y-63921115D01*
X148665527Y-63880562D01*
X148636989Y-63877751D01*
X148699084Y-63727841D01*
X148754200Y-63450756D01*
X148754200Y-63168244D01*
X148699084Y-62891159D01*
X148590971Y-62630152D01*
X148434016Y-62395251D01*
X148234249Y-62195484D01*
X147999348Y-62038529D01*
X147738341Y-61930416D01*
X147461256Y-61875300D01*
X147178744Y-61875300D01*
X146901659Y-61930416D01*
X146640652Y-62038529D01*
X146405751Y-62195484D01*
X146205984Y-62395251D01*
X146050000Y-62628699D01*
X145894016Y-62395251D01*
X145694249Y-62195484D01*
X145459348Y-62038529D01*
X145198341Y-61930416D01*
X144921256Y-61875300D01*
X144638744Y-61875300D01*
X144361659Y-61930416D01*
X144100652Y-62038529D01*
X143865751Y-62195484D01*
X143665984Y-62395251D01*
X143533602Y-62593376D01*
X143435178Y-62428145D01*
X143240269Y-62211912D01*
X143006920Y-62037859D01*
X142744099Y-61912675D01*
X142596890Y-61868024D01*
X142367000Y-61989345D01*
X142367000Y-63182500D01*
X142387000Y-63182500D01*
X142387000Y-63436500D01*
X142367000Y-63436500D01*
X142367000Y-63456500D01*
X142113000Y-63456500D01*
X142113000Y-63436500D01*
X139827000Y-63436500D01*
X139827000Y-63456500D01*
X139573000Y-63456500D01*
X139573000Y-63436500D01*
X139553000Y-63436500D01*
X139553000Y-63182500D01*
X139573000Y-63182500D01*
X139573000Y-61989345D01*
X139827000Y-61989345D01*
X139827000Y-63182500D01*
X142113000Y-63182500D01*
X142113000Y-61989345D01*
X141883110Y-61868024D01*
X141735901Y-61912675D01*
X141473080Y-62037859D01*
X141239731Y-62211912D01*
X141044822Y-62428145D01*
X140970000Y-62553755D01*
X140895178Y-62428145D01*
X140700269Y-62211912D01*
X140466920Y-62037859D01*
X140204099Y-61912675D01*
X140056890Y-61868024D01*
X139827000Y-61989345D01*
X139573000Y-61989345D01*
X139343110Y-61868024D01*
X139195901Y-61912675D01*
X138933080Y-62037859D01*
X138699731Y-62211912D01*
X138504822Y-62428145D01*
X138406398Y-62593376D01*
X138274016Y-62395251D01*
X138074249Y-62195484D01*
X137839348Y-62038529D01*
X137578341Y-61930416D01*
X137301256Y-61875300D01*
X137018744Y-61875300D01*
X136741659Y-61930416D01*
X136480652Y-62038529D01*
X136245751Y-62195484D01*
X136122335Y-62318900D01*
X134351153Y-62318900D01*
X134302499Y-62314108D01*
X134253845Y-62318900D01*
X134253835Y-62318900D01*
X134108308Y-62333233D01*
X133921580Y-62389877D01*
X133749489Y-62481861D01*
X133598651Y-62605651D01*
X133567622Y-62643460D01*
X133230551Y-62980531D01*
X133216090Y-62962910D01*
X133127134Y-62889906D01*
X133025645Y-62835659D01*
X132915523Y-62802254D01*
X132801000Y-62790974D01*
X130801000Y-62790974D01*
X130686477Y-62802254D01*
X130576355Y-62835659D01*
X130474866Y-62889906D01*
X130385910Y-62962910D01*
X130312906Y-63051866D01*
X130258659Y-63153355D01*
X130225254Y-63263477D01*
X130213974Y-63378000D01*
X130213974Y-64185800D01*
X126975909Y-64185800D01*
X126961333Y-64168039D01*
X127031537Y-64082494D01*
X127090502Y-63972180D01*
X127126812Y-63852482D01*
X127139072Y-63728000D01*
X127136000Y-63263750D01*
X126977250Y-63105000D01*
X125628000Y-63105000D01*
X125628000Y-63125000D01*
X125374000Y-63125000D01*
X125374000Y-63105000D01*
X124024750Y-63105000D01*
X123866000Y-63263750D01*
X123862928Y-63728000D01*
X123875188Y-63852482D01*
X123911498Y-63972180D01*
X123970463Y-64082494D01*
X124040667Y-64168039D01*
X124012906Y-64201866D01*
X123958659Y-64303355D01*
X123925254Y-64413477D01*
X123913974Y-64528000D01*
X123913974Y-65214264D01*
X123228100Y-64528391D01*
X123228100Y-63760771D01*
X123354027Y-63693462D01*
X123480867Y-63589367D01*
X123584962Y-63462527D01*
X123662311Y-63317817D01*
X123709943Y-63160796D01*
X123726026Y-62997501D01*
X123726026Y-62228000D01*
X123862928Y-62228000D01*
X123866000Y-62692250D01*
X124024750Y-62851000D01*
X125374000Y-62851000D01*
X125374000Y-61751750D01*
X125628000Y-61751750D01*
X125628000Y-62851000D01*
X126977250Y-62851000D01*
X127136000Y-62692250D01*
X127139072Y-62228000D01*
X127126812Y-62103518D01*
X127090502Y-61983820D01*
X127031537Y-61873506D01*
X126952185Y-61776815D01*
X126855494Y-61697463D01*
X126745180Y-61638498D01*
X126625482Y-61602188D01*
X126501000Y-61589928D01*
X125786750Y-61593000D01*
X125628000Y-61751750D01*
X125374000Y-61751750D01*
X125215250Y-61593000D01*
X124501000Y-61589928D01*
X124376518Y-61602188D01*
X124256820Y-61638498D01*
X124146506Y-61697463D01*
X124049815Y-61776815D01*
X123970463Y-61873506D01*
X123911498Y-61983820D01*
X123875188Y-62103518D01*
X123862928Y-62228000D01*
X123726026Y-62228000D01*
X123726026Y-62097499D01*
X123709943Y-61934204D01*
X123662311Y-61777183D01*
X123584962Y-61632473D01*
X123533035Y-61569200D01*
X148972662Y-61569200D01*
X149250801Y-61847340D01*
G37*
G04 #@! TD.AperFunction*
M02*
