G04 #@! TF.GenerationSoftware,KiCad,Pcbnew,5.1.9-73d0e3b20d~88~ubuntu20.04.1*
G04 #@! TF.CreationDate,2021-01-20T21:34:12+07:00*
G04 #@! TF.ProjectId,ch340G_uploader,63683334-3047-45f7-9570-6c6f61646572,rev?*
G04 #@! TF.SameCoordinates,Original*
G04 #@! TF.FileFunction,Paste,Top*
G04 #@! TF.FilePolarity,Positive*
%FSLAX46Y46*%
G04 Gerber Fmt 4.6, Leading zero omitted, Abs format (unit mm)*
G04 Created by KiCad (PCBNEW 5.1.9-73d0e3b20d~88~ubuntu20.04.1) date 2021-01-20 21:34:12*
%MOMM*%
%LPD*%
G01*
G04 APERTURE LIST*
%ADD10R,5.080000X2.000000*%
%ADD11R,2.000000X1.500000*%
%ADD12R,2.000000X3.800000*%
%ADD13R,2.400000X2.100000*%
G04 APERTURE END LIST*
G36*
G01*
X127838000Y-69907999D02*
X127838000Y-70808001D01*
G75*
G02*
X127588001Y-71058000I-249999J0D01*
G01*
X126937999Y-71058000D01*
G75*
G02*
X126688000Y-70808001I0J249999D01*
G01*
X126688000Y-69907999D01*
G75*
G02*
X126937999Y-69658000I249999J0D01*
G01*
X127588001Y-69658000D01*
G75*
G02*
X127838000Y-69907999I0J-249999D01*
G01*
G37*
G36*
G01*
X125788000Y-69907999D02*
X125788000Y-70808001D01*
G75*
G02*
X125538001Y-71058000I-249999J0D01*
G01*
X124887999Y-71058000D01*
G75*
G02*
X124638000Y-70808001I0J249999D01*
G01*
X124638000Y-69907999D01*
G75*
G02*
X124887999Y-69658000I249999J0D01*
G01*
X125538001Y-69658000D01*
G75*
G02*
X125788000Y-69907999I0J-249999D01*
G01*
G37*
G36*
G01*
X121989000Y-62997501D02*
X121989000Y-62097499D01*
G75*
G02*
X122238999Y-61847500I249999J0D01*
G01*
X122889001Y-61847500D01*
G75*
G02*
X123139000Y-62097499I0J-249999D01*
G01*
X123139000Y-62997501D01*
G75*
G02*
X122889001Y-63247500I-249999J0D01*
G01*
X122238999Y-63247500D01*
G75*
G02*
X121989000Y-62997501I0J249999D01*
G01*
G37*
G36*
G01*
X119939000Y-62997501D02*
X119939000Y-62097499D01*
G75*
G02*
X120188999Y-61847500I249999J0D01*
G01*
X120839001Y-61847500D01*
G75*
G02*
X121089000Y-62097499I0J-249999D01*
G01*
X121089000Y-62997501D01*
G75*
G02*
X120839001Y-63247500I-249999J0D01*
G01*
X120188999Y-63247500D01*
G75*
G02*
X119939000Y-62997501I0J249999D01*
G01*
G37*
G36*
G01*
X148532001Y-72665500D02*
X147631999Y-72665500D01*
G75*
G02*
X147382000Y-72415501I0J249999D01*
G01*
X147382000Y-71765499D01*
G75*
G02*
X147631999Y-71515500I249999J0D01*
G01*
X148532001Y-71515500D01*
G75*
G02*
X148782000Y-71765499I0J-249999D01*
G01*
X148782000Y-72415501D01*
G75*
G02*
X148532001Y-72665500I-249999J0D01*
G01*
G37*
G36*
G01*
X148532001Y-70615500D02*
X147631999Y-70615500D01*
G75*
G02*
X147382000Y-70365501I0J249999D01*
G01*
X147382000Y-69715499D01*
G75*
G02*
X147631999Y-69465500I249999J0D01*
G01*
X148532001Y-69465500D01*
G75*
G02*
X148782000Y-69715499I0J-249999D01*
G01*
X148782000Y-70365501D01*
G75*
G02*
X148532001Y-70615500I-249999J0D01*
G01*
G37*
G36*
G01*
X146373001Y-72665500D02*
X145472999Y-72665500D01*
G75*
G02*
X145223000Y-72415501I0J249999D01*
G01*
X145223000Y-71765499D01*
G75*
G02*
X145472999Y-71515500I249999J0D01*
G01*
X146373001Y-71515500D01*
G75*
G02*
X146623000Y-71765499I0J-249999D01*
G01*
X146623000Y-72415501D01*
G75*
G02*
X146373001Y-72665500I-249999J0D01*
G01*
G37*
G36*
G01*
X146373001Y-70615500D02*
X145472999Y-70615500D01*
G75*
G02*
X145223000Y-70365501I0J249999D01*
G01*
X145223000Y-69715499D01*
G75*
G02*
X145472999Y-69465500I249999J0D01*
G01*
X146373001Y-69465500D01*
G75*
G02*
X146623000Y-69715499I0J-249999D01*
G01*
X146623000Y-70365501D01*
G75*
G02*
X146373001Y-70615500I-249999J0D01*
G01*
G37*
G36*
G01*
X148405001Y-81434500D02*
X147504999Y-81434500D01*
G75*
G02*
X147255000Y-81184501I0J249999D01*
G01*
X147255000Y-80534499D01*
G75*
G02*
X147504999Y-80284500I249999J0D01*
G01*
X148405001Y-80284500D01*
G75*
G02*
X148655000Y-80534499I0J-249999D01*
G01*
X148655000Y-81184501D01*
G75*
G02*
X148405001Y-81434500I-249999J0D01*
G01*
G37*
G36*
G01*
X148405001Y-79384500D02*
X147504999Y-79384500D01*
G75*
G02*
X147255000Y-79134501I0J249999D01*
G01*
X147255000Y-78484499D01*
G75*
G02*
X147504999Y-78234500I249999J0D01*
G01*
X148405001Y-78234500D01*
G75*
G02*
X148655000Y-78484499I0J-249999D01*
G01*
X148655000Y-79134501D01*
G75*
G02*
X148405001Y-79384500I-249999J0D01*
G01*
G37*
G36*
G01*
X141091499Y-80284500D02*
X141991501Y-80284500D01*
G75*
G02*
X142241500Y-80534499I0J-249999D01*
G01*
X142241500Y-81184501D01*
G75*
G02*
X141991501Y-81434500I-249999J0D01*
G01*
X141091499Y-81434500D01*
G75*
G02*
X140841500Y-81184501I0J249999D01*
G01*
X140841500Y-80534499D01*
G75*
G02*
X141091499Y-80284500I249999J0D01*
G01*
G37*
G36*
G01*
X141091499Y-78234500D02*
X141991501Y-78234500D01*
G75*
G02*
X142241500Y-78484499I0J-249999D01*
G01*
X142241500Y-79134501D01*
G75*
G02*
X141991501Y-79384500I-249999J0D01*
G01*
X141091499Y-79384500D01*
G75*
G02*
X140841500Y-79134501I0J249999D01*
G01*
X140841500Y-78484499D01*
G75*
G02*
X141091499Y-78234500I249999J0D01*
G01*
G37*
G36*
G01*
X146309501Y-79384500D02*
X145409499Y-79384500D01*
G75*
G02*
X145159500Y-79134501I0J249999D01*
G01*
X145159500Y-78484499D01*
G75*
G02*
X145409499Y-78234500I249999J0D01*
G01*
X146309501Y-78234500D01*
G75*
G02*
X146559500Y-78484499I0J-249999D01*
G01*
X146559500Y-79134501D01*
G75*
G02*
X146309501Y-79384500I-249999J0D01*
G01*
G37*
G36*
G01*
X146309501Y-81434500D02*
X145409499Y-81434500D01*
G75*
G02*
X145159500Y-81184501I0J249999D01*
G01*
X145159500Y-80534499D01*
G75*
G02*
X145409499Y-80284500I249999J0D01*
G01*
X146309501Y-80284500D01*
G75*
G02*
X146559500Y-80534499I0J-249999D01*
G01*
X146559500Y-81184501D01*
G75*
G02*
X146309501Y-81434500I-249999J0D01*
G01*
G37*
G36*
G01*
X136090000Y-69780999D02*
X136090000Y-70681001D01*
G75*
G02*
X135840001Y-70931000I-249999J0D01*
G01*
X135189999Y-70931000D01*
G75*
G02*
X134940000Y-70681001I0J249999D01*
G01*
X134940000Y-69780999D01*
G75*
G02*
X135189999Y-69531000I249999J0D01*
G01*
X135840001Y-69531000D01*
G75*
G02*
X136090000Y-69780999I0J-249999D01*
G01*
G37*
G36*
G01*
X138140000Y-69780999D02*
X138140000Y-70681001D01*
G75*
G02*
X137890001Y-70931000I-249999J0D01*
G01*
X137239999Y-70931000D01*
G75*
G02*
X136990000Y-70681001I0J249999D01*
G01*
X136990000Y-69780999D01*
G75*
G02*
X137239999Y-69531000I249999J0D01*
G01*
X137890001Y-69531000D01*
G75*
G02*
X138140000Y-69780999I0J-249999D01*
G01*
G37*
G36*
G01*
X143022500Y-70681001D02*
X143022500Y-69780999D01*
G75*
G02*
X143272499Y-69531000I249999J0D01*
G01*
X143922501Y-69531000D01*
G75*
G02*
X144172500Y-69780999I0J-249999D01*
G01*
X144172500Y-70681001D01*
G75*
G02*
X143922501Y-70931000I-249999J0D01*
G01*
X143272499Y-70931000D01*
G75*
G02*
X143022500Y-70681001I0J249999D01*
G01*
G37*
G36*
G01*
X140972500Y-70681001D02*
X140972500Y-69780999D01*
G75*
G02*
X141222499Y-69531000I249999J0D01*
G01*
X141872501Y-69531000D01*
G75*
G02*
X142122500Y-69780999I0J-249999D01*
G01*
X142122500Y-70681001D01*
G75*
G02*
X141872501Y-70931000I-249999J0D01*
G01*
X141222499Y-70931000D01*
G75*
G02*
X140972500Y-70681001I0J249999D01*
G01*
G37*
G36*
G01*
X130868000Y-69780999D02*
X130868000Y-70681001D01*
G75*
G02*
X130618001Y-70931000I-249999J0D01*
G01*
X129967999Y-70931000D01*
G75*
G02*
X129718000Y-70681001I0J249999D01*
G01*
X129718000Y-69780999D01*
G75*
G02*
X129967999Y-69531000I249999J0D01*
G01*
X130618001Y-69531000D01*
G75*
G02*
X130868000Y-69780999I0J-249999D01*
G01*
G37*
G36*
G01*
X132918000Y-69780999D02*
X132918000Y-70681001D01*
G75*
G02*
X132668001Y-70931000I-249999J0D01*
G01*
X132017999Y-70931000D01*
G75*
G02*
X131768000Y-70681001I0J249999D01*
G01*
X131768000Y-69780999D01*
G75*
G02*
X132017999Y-69531000I249999J0D01*
G01*
X132668001Y-69531000D01*
G75*
G02*
X132918000Y-69780999I0J-249999D01*
G01*
G37*
G36*
G01*
X126243500Y-80523501D02*
X126243500Y-79623499D01*
G75*
G02*
X126493499Y-79373500I249999J0D01*
G01*
X127143501Y-79373500D01*
G75*
G02*
X127393500Y-79623499I0J-249999D01*
G01*
X127393500Y-80523501D01*
G75*
G02*
X127143501Y-80773500I-249999J0D01*
G01*
X126493499Y-80773500D01*
G75*
G02*
X126243500Y-80523501I0J249999D01*
G01*
G37*
G36*
G01*
X124193500Y-80523501D02*
X124193500Y-79623499D01*
G75*
G02*
X124443499Y-79373500I249999J0D01*
G01*
X125093501Y-79373500D01*
G75*
G02*
X125343500Y-79623499I0J-249999D01*
G01*
X125343500Y-80523501D01*
G75*
G02*
X125093501Y-80773500I-249999J0D01*
G01*
X124443499Y-80773500D01*
G75*
G02*
X124193500Y-80523501I0J249999D01*
G01*
G37*
G36*
G01*
X138153000Y-77069800D02*
X138453000Y-77069800D01*
G75*
G02*
X138603000Y-77219800I0J-150000D01*
G01*
X138603000Y-79205800D01*
G75*
G02*
X138453000Y-79355800I-150000J0D01*
G01*
X138153000Y-79355800D01*
G75*
G02*
X138003000Y-79205800I0J150000D01*
G01*
X138003000Y-77219800D01*
G75*
G02*
X138153000Y-77069800I150000J0D01*
G01*
G37*
G36*
G01*
X136883000Y-77069800D02*
X137183000Y-77069800D01*
G75*
G02*
X137333000Y-77219800I0J-150000D01*
G01*
X137333000Y-79205800D01*
G75*
G02*
X137183000Y-79355800I-150000J0D01*
G01*
X136883000Y-79355800D01*
G75*
G02*
X136733000Y-79205800I0J150000D01*
G01*
X136733000Y-77219800D01*
G75*
G02*
X136883000Y-77069800I150000J0D01*
G01*
G37*
G36*
G01*
X135613000Y-77069800D02*
X135913000Y-77069800D01*
G75*
G02*
X136063000Y-77219800I0J-150000D01*
G01*
X136063000Y-79205800D01*
G75*
G02*
X135913000Y-79355800I-150000J0D01*
G01*
X135613000Y-79355800D01*
G75*
G02*
X135463000Y-79205800I0J150000D01*
G01*
X135463000Y-77219800D01*
G75*
G02*
X135613000Y-77069800I150000J0D01*
G01*
G37*
G36*
G01*
X134343000Y-77069800D02*
X134643000Y-77069800D01*
G75*
G02*
X134793000Y-77219800I0J-150000D01*
G01*
X134793000Y-79205800D01*
G75*
G02*
X134643000Y-79355800I-150000J0D01*
G01*
X134343000Y-79355800D01*
G75*
G02*
X134193000Y-79205800I0J150000D01*
G01*
X134193000Y-77219800D01*
G75*
G02*
X134343000Y-77069800I150000J0D01*
G01*
G37*
G36*
G01*
X133073000Y-77069800D02*
X133373000Y-77069800D01*
G75*
G02*
X133523000Y-77219800I0J-150000D01*
G01*
X133523000Y-79205800D01*
G75*
G02*
X133373000Y-79355800I-150000J0D01*
G01*
X133073000Y-79355800D01*
G75*
G02*
X132923000Y-79205800I0J150000D01*
G01*
X132923000Y-77219800D01*
G75*
G02*
X133073000Y-77069800I150000J0D01*
G01*
G37*
G36*
G01*
X131803000Y-77069800D02*
X132103000Y-77069800D01*
G75*
G02*
X132253000Y-77219800I0J-150000D01*
G01*
X132253000Y-79205800D01*
G75*
G02*
X132103000Y-79355800I-150000J0D01*
G01*
X131803000Y-79355800D01*
G75*
G02*
X131653000Y-79205800I0J150000D01*
G01*
X131653000Y-77219800D01*
G75*
G02*
X131803000Y-77069800I150000J0D01*
G01*
G37*
G36*
G01*
X130533000Y-77069800D02*
X130833000Y-77069800D01*
G75*
G02*
X130983000Y-77219800I0J-150000D01*
G01*
X130983000Y-79205800D01*
G75*
G02*
X130833000Y-79355800I-150000J0D01*
G01*
X130533000Y-79355800D01*
G75*
G02*
X130383000Y-79205800I0J150000D01*
G01*
X130383000Y-77219800D01*
G75*
G02*
X130533000Y-77069800I150000J0D01*
G01*
G37*
G36*
G01*
X129263000Y-77069800D02*
X129563000Y-77069800D01*
G75*
G02*
X129713000Y-77219800I0J-150000D01*
G01*
X129713000Y-79205800D01*
G75*
G02*
X129563000Y-79355800I-150000J0D01*
G01*
X129263000Y-79355800D01*
G75*
G02*
X129113000Y-79205800I0J150000D01*
G01*
X129113000Y-77219800D01*
G75*
G02*
X129263000Y-77069800I150000J0D01*
G01*
G37*
G36*
G01*
X129263000Y-82142000D02*
X129563000Y-82142000D01*
G75*
G02*
X129713000Y-82292000I0J-150000D01*
G01*
X129713000Y-85040000D01*
G75*
G02*
X129563000Y-85190000I-150000J0D01*
G01*
X129263000Y-85190000D01*
G75*
G02*
X129113000Y-85040000I0J150000D01*
G01*
X129113000Y-82292000D01*
G75*
G02*
X129263000Y-82142000I150000J0D01*
G01*
G37*
G36*
G01*
X130533000Y-82142000D02*
X130833000Y-82142000D01*
G75*
G02*
X130983000Y-82292000I0J-150000D01*
G01*
X130983000Y-85040000D01*
G75*
G02*
X130833000Y-85190000I-150000J0D01*
G01*
X130533000Y-85190000D01*
G75*
G02*
X130383000Y-85040000I0J150000D01*
G01*
X130383000Y-82292000D01*
G75*
G02*
X130533000Y-82142000I150000J0D01*
G01*
G37*
G36*
G01*
X131803000Y-82142000D02*
X132103000Y-82142000D01*
G75*
G02*
X132253000Y-82292000I0J-150000D01*
G01*
X132253000Y-85040000D01*
G75*
G02*
X132103000Y-85190000I-150000J0D01*
G01*
X131803000Y-85190000D01*
G75*
G02*
X131653000Y-85040000I0J150000D01*
G01*
X131653000Y-82292000D01*
G75*
G02*
X131803000Y-82142000I150000J0D01*
G01*
G37*
G36*
G01*
X133073000Y-82142000D02*
X133373000Y-82142000D01*
G75*
G02*
X133523000Y-82292000I0J-150000D01*
G01*
X133523000Y-85040000D01*
G75*
G02*
X133373000Y-85190000I-150000J0D01*
G01*
X133073000Y-85190000D01*
G75*
G02*
X132923000Y-85040000I0J150000D01*
G01*
X132923000Y-82292000D01*
G75*
G02*
X133073000Y-82142000I150000J0D01*
G01*
G37*
G36*
G01*
X134343000Y-82142000D02*
X134643000Y-82142000D01*
G75*
G02*
X134793000Y-82292000I0J-150000D01*
G01*
X134793000Y-85040000D01*
G75*
G02*
X134643000Y-85190000I-150000J0D01*
G01*
X134343000Y-85190000D01*
G75*
G02*
X134193000Y-85040000I0J150000D01*
G01*
X134193000Y-82292000D01*
G75*
G02*
X134343000Y-82142000I150000J0D01*
G01*
G37*
G36*
G01*
X135613000Y-82142000D02*
X135913000Y-82142000D01*
G75*
G02*
X136063000Y-82292000I0J-150000D01*
G01*
X136063000Y-85040000D01*
G75*
G02*
X135913000Y-85190000I-150000J0D01*
G01*
X135613000Y-85190000D01*
G75*
G02*
X135463000Y-85040000I0J150000D01*
G01*
X135463000Y-82292000D01*
G75*
G02*
X135613000Y-82142000I150000J0D01*
G01*
G37*
G36*
G01*
X136883000Y-82396000D02*
X137183000Y-82396000D01*
G75*
G02*
X137333000Y-82546000I0J-150000D01*
G01*
X137333000Y-84786000D01*
G75*
G02*
X137183000Y-84936000I-150000J0D01*
G01*
X136883000Y-84936000D01*
G75*
G02*
X136733000Y-84786000I0J150000D01*
G01*
X136733000Y-82546000D01*
G75*
G02*
X136883000Y-82396000I150000J0D01*
G01*
G37*
G36*
G01*
X138153000Y-82396000D02*
X138453000Y-82396000D01*
G75*
G02*
X138603000Y-82546000I0J-150000D01*
G01*
X138603000Y-84786000D01*
G75*
G02*
X138453000Y-84936000I-150000J0D01*
G01*
X138153000Y-84936000D01*
G75*
G02*
X138003000Y-84786000I0J150000D01*
G01*
X138003000Y-82546000D01*
G75*
G02*
X138153000Y-82396000I150000J0D01*
G01*
G37*
G36*
G01*
X126164500Y-75171000D02*
X124914500Y-75171000D01*
G75*
G02*
X124664500Y-74921000I0J250000D01*
G01*
X124664500Y-74171000D01*
G75*
G02*
X124914500Y-73921000I250000J0D01*
G01*
X126164500Y-73921000D01*
G75*
G02*
X126414500Y-74171000I0J-250000D01*
G01*
X126414500Y-74921000D01*
G75*
G02*
X126164500Y-75171000I-250000J0D01*
G01*
G37*
G36*
G01*
X126164500Y-77971000D02*
X124914500Y-77971000D01*
G75*
G02*
X124664500Y-77721000I0J250000D01*
G01*
X124664500Y-76971000D01*
G75*
G02*
X124914500Y-76721000I250000J0D01*
G01*
X126164500Y-76721000D01*
G75*
G02*
X126414500Y-76971000I0J-250000D01*
G01*
X126414500Y-77721000D01*
G75*
G02*
X126164500Y-77971000I-250000J0D01*
G01*
G37*
D10*
X141664000Y-74295000D03*
X133164000Y-74295000D03*
D11*
X125501000Y-62978000D03*
X125501000Y-67578000D03*
X125501000Y-65278000D03*
D12*
X131801000Y-65278000D03*
D13*
X121815500Y-83248500D03*
X126215500Y-83248500D03*
M02*
