M48
; DRILL file {KiCad 5.1.9-73d0e3b20d~88~ubuntu20.04.1} date Wed Jan 20 21:34:17 2021
; FORMAT={-:-/ absolute / inch / decimal}
; #@! TF.CreationDate,2021-01-20T21:34:17+07:00
; #@! TF.GenerationSoftware,Kicad,Pcbnew,5.1.9-73d0e3b20d~88~ubuntu20.04.1
; #@! TF.FileFunction,Plated,1,2,PTH
FMAT,2
INCH
T1C0.0157
T2C0.0362
T3C0.0394
T4C0.0906
%
G90
G05
T1
X5.045Y-3.2125
X5.05Y-2.625
X5.1Y-2.625
X5.1Y-2.675
X5.1175Y-3.2
X5.1975Y-3.17
X5.2425Y-3.17
X5.275Y-2.6
X5.275Y-2.65
X5.275Y-2.7
X5.325Y-2.6
X5.325Y-2.65
X5.325Y-2.7
X5.3725Y-3.0
X5.4575Y-3.1675
X5.4875Y-3.33
X5.49Y-3.07
X5.49Y-3.11
X5.5165Y-3.1797
X5.5175Y-3.2375
X5.5575Y-3.0375
X5.599Y-3.039
X5.6575Y-3.0577
X5.7Y-3.255
X5.7125Y-2.6825
X5.804Y-2.948
X5.805Y-2.993
X5.8175Y-2.675
X5.854Y-2.995
X5.855Y-2.948
T2
X4.803Y-2.733
X4.803Y-2.8314
X4.803Y-2.9102
X4.803Y-3.0086
T3
X5.4Y-2.4925
X5.4Y-2.5925
X5.5Y-2.4925
X5.5Y-2.5925
X5.6Y-2.4925
X5.6Y-2.5925
X5.7Y-2.4925
X5.7Y-2.5925
X5.8Y-2.4925
X5.8Y-2.5925
T4
X4.6963Y-2.6121
X4.6963Y-3.1295
T0
M30
