G04 #@! TF.GenerationSoftware,KiCad,Pcbnew,5.1.9-73d0e3b20d~88~ubuntu20.04.1*
G04 #@! TF.CreationDate,2021-01-20T21:34:12+07:00*
G04 #@! TF.ProjectId,ch340G_uploader,63683334-3047-45f7-9570-6c6f61646572,rev?*
G04 #@! TF.SameCoordinates,Original*
G04 #@! TF.FileFunction,Other,User*
%FSLAX46Y46*%
G04 Gerber Fmt 4.6, Leading zero omitted, Abs format (unit mm)*
G04 Created by KiCad (PCBNEW 5.1.9-73d0e3b20d~88~ubuntu20.04.1) date 2021-01-20 21:34:12*
%MOMM*%
%LPD*%
G01*
G04 APERTURE LIST*
%ADD10C,0.050000*%
G04 APERTURE END LIST*
D10*
X123389000Y-63497500D02*
X119689000Y-63497500D01*
X123389000Y-61597500D02*
X123389000Y-63497500D01*
X119689000Y-61597500D02*
X123389000Y-61597500D01*
X119689000Y-63497500D02*
X119689000Y-61597500D01*
X139058000Y-77391000D02*
X128658000Y-77391000D01*
X128658000Y-77391000D02*
X128658000Y-84791000D01*
X128658000Y-84791000D02*
X139058000Y-84791000D01*
X139058000Y-84791000D02*
X139058000Y-77391000D01*
X126659500Y-73666000D02*
X126659500Y-78226000D01*
X124419500Y-73666000D02*
X126659500Y-73666000D01*
X124419500Y-78226000D02*
X124419500Y-73666000D01*
X126659500Y-78226000D02*
X124419500Y-78226000D01*
X120006200Y-64268200D02*
X121306200Y-65168200D01*
X118556200Y-64268200D02*
X120006200Y-64268200D01*
X117256200Y-66168200D02*
X117256200Y-65168200D01*
X118556200Y-64268200D02*
X117256200Y-65168200D01*
X121306200Y-66168200D02*
X121306200Y-65168200D01*
X118556200Y-81568200D02*
X117256200Y-80668200D01*
X121306200Y-66168200D02*
X123506200Y-66168200D01*
X123506200Y-79668200D02*
X123506200Y-66168200D01*
X121306200Y-79668200D02*
X123506200Y-79668200D01*
X120006200Y-81568200D02*
X118556200Y-81568200D01*
X121306200Y-79668200D02*
X121306200Y-80668200D01*
X120006200Y-81568200D02*
X121306200Y-80668200D01*
X117256200Y-66168200D02*
X110006200Y-66168200D01*
X110006200Y-66168200D02*
X110006200Y-65168200D01*
X110006200Y-65168200D02*
X108506200Y-65168200D01*
X108506200Y-65168200D02*
X108506200Y-80668200D01*
X108506200Y-80668200D02*
X110006200Y-80668200D01*
X110006200Y-80668200D02*
X110006200Y-79668200D01*
X110006200Y-79668200D02*
X117256200Y-79668200D01*
X117256200Y-79668200D02*
X117256200Y-80668200D01*
X135360000Y-61499500D02*
X135360000Y-67649500D01*
X149110000Y-61499500D02*
X135360000Y-61499500D01*
X149110000Y-67649500D02*
X149110000Y-61499500D01*
X135360000Y-67649500D02*
X149110000Y-67649500D01*
X144214000Y-71695000D02*
X130614000Y-71695000D01*
X144214000Y-76895000D02*
X144214000Y-71695000D01*
X130614000Y-76895000D02*
X144214000Y-76895000D01*
X130614000Y-71695000D02*
X130614000Y-76895000D01*
X124251000Y-61678000D02*
X124251000Y-68878000D01*
X124251000Y-68878000D02*
X133051000Y-68878000D01*
X133051000Y-68878000D02*
X133051000Y-61678000D01*
X133051000Y-61678000D02*
X124251000Y-61678000D01*
X127165500Y-84748500D02*
X127165500Y-81748500D01*
X120865500Y-81748500D02*
X127165500Y-81748500D01*
X120865500Y-84748500D02*
X120865500Y-81748500D01*
X127165500Y-84748500D02*
X120865500Y-84748500D01*
M02*
